<svg width="109" height="109" viewBox="0 0 109 109" fill="none" xmlns="http://www.w3.org/2000/svg">
<path fill-rule="evenodd" clip-rule="evenodd" d="M107.442 92.5763L107.442 92.5759V92.5732H107.44L97.1368 75.6793C96.5469 74.7121 95.0393 74.0901 95.0393 74.0901C95.6606 74.0901 96.1642 73.5862 96.1642 72.9648V21.6999C96.1642 21.0786 95.6606 20.575 95.0393 20.575H13.4156C12.7942 20.575 12.2907 21.0786 12.2907 21.6999V72.9648C12.2907 73.5862 12.7942 74.0901 13.4156 74.0901C13.4156 74.0901 11.908 74.7121 11.318 75.6793L1.01448 92.5732H1.01279V92.5759L1.01245 92.5763H1.01279V94.8743C1.01279 95.4099 1.44681 95.8439 1.98243 95.8439H106.487C107.014 95.8439 107.442 95.416 107.442 94.8885V92.5763H107.442Z" fill="#8533AD"/>
<path fill-rule="evenodd" clip-rule="evenodd" d="M92.3185 70.7353H16.1363C15.9132 70.7353 15.7327 70.5548 15.7327 70.332V24.7901C15.7327 24.5674 15.9132 24.3868 16.1363 24.3868H92.3185C92.5413 24.3868 92.7222 24.5674 92.7222 24.7901V70.332C92.7222 70.5548 92.5413 70.7353 92.3185 70.7353Z" fill="#DDDDDD"/>
<path opacity="0.1" fill-rule="evenodd" clip-rule="evenodd" d="M1.43172 91.8888L1.01221 92.5763H107.442L107.023 91.8888H1.43172Z" fill="white"/>
<path fill-rule="evenodd" clip-rule="evenodd" d="M12.1403 83.5367H95.8096C96.951 83.5367 97.6527 82.2873 97.058 81.3126L93.8369 76.0314C93.5716 75.596 93.0981 75.3304 92.5885 75.3304H15.3614C14.8514 75.3304 14.3783 75.596 14.1127 76.0314L10.8916 81.3126C10.2972 82.2873 10.9989 83.5367 12.1403 83.5367ZM60.0675 84.8692H47.8824C47.3086 84.8692 46.7936 85.2223 46.587 85.7575L45.4068 88.8112C45.0551 89.7211 45.7264 90.7006 46.7021 90.7006H61.2474C62.2234 90.7006 62.8947 89.7211 62.543 88.8112L61.3628 85.7575C61.1562 85.2223 60.6412 84.8692 60.0675 84.8692ZM1.0127 94.8742V92.5734H107.442V94.8883C107.442 95.4162 107.014 95.8438 106.487 95.8438H1.98233C1.44706 95.8438 1.0127 95.4098 1.0127 94.8742Z" fill="#5D2479"/>
<path fill-rule="evenodd" clip-rule="evenodd" d="M50.9394 59.0117C50.1854 58.9802 49.466 58.6831 48.9085 58.1734L48.8059 58.0754L41.1061 50.3742C39.8539 49.1216 39.8539 47.0914 41.1062 45.8401C42.3303 44.6159 44.2964 44.5881 45.5538 45.7566L45.6404 45.8401L51.073 51.2723L64.2464 38.1004C65.4708 36.8768 67.4364 36.849 68.6938 38.0171L68.7804 38.1005C70.0049 39.3247 70.0328 41.2909 68.8639 42.5483L68.7805 42.6348L53.3402 58.0758C52.7701 58.645 52.0084 58.9782 51.2071 59.0117L51.0732 59.0145L50.9394 59.0117Z" fill="#EF6497"/>
<path fill-rule="evenodd" clip-rule="evenodd" d="M40.2733 46.7469H2.51221C1.35125 46.7469 0.409912 47.6881 0.409912 48.849V100.1C0.409912 101.261 1.35125 102.202 2.51221 102.202H40.2733C41.4345 102.202 42.3754 101.261 42.3754 100.1V48.849C42.3754 47.6881 41.4345 46.7469 40.2733 46.7469Z" fill="#8533AD"/>
<path opacity="0.15" fill-rule="evenodd" clip-rule="evenodd" d="M2.51202 46.7469H4.05246C2.89151 46.7469 1.95035 47.6881 1.95035 48.849V100.1C1.95035 101.261 2.89151 102.202 4.05246 102.202H2.51202C1.35125 102.202 0.409912 101.261 0.409912 100.1V48.849C0.409912 47.6881 1.35125 46.7469 2.51202 46.7469ZM20.7908 99.1464C20.7908 98.3885 21.4052 97.7741 22.1629 97.7741C22.9207 97.7741 23.5351 98.3885 23.5351 99.1464C23.5351 99.9042 22.9207 100.519 22.1629 100.519C21.4052 100.519 20.7908 99.9042 20.7908 99.1464Z" fill="#14001F"/>
<path fill-rule="evenodd" clip-rule="evenodd" d="M38.6257 96.0289H5.69999C4.91188 96.0289 4.27295 95.3902 4.27295 94.6019V50.4861C4.27295 49.698 4.91188 49.0591 5.69999 49.0591H38.6257C39.4136 49.0591 40.0525 49.698 40.0525 50.4861V94.6019C40.0525 95.3902 39.4136 96.0289 38.6257 96.0289Z" fill="#DDDDDD"/>
<path fill-rule="evenodd" clip-rule="evenodd" d="M20.3257 80.4022C19.7551 80.3783 19.2107 80.1535 18.7888 79.7678L18.7111 79.6936L12.8843 73.8656C11.9367 72.9177 11.9367 71.3814 12.8843 70.4344C13.8107 69.508 15.2985 69.487 16.2501 70.3712L16.3156 70.4344L20.4268 74.5453L30.3958 64.5774C31.3224 63.6514 32.8099 63.6304 33.7614 64.5143L33.8269 64.5774C34.7537 65.5038 34.7747 66.9918 33.8902 67.9433L33.827 68.0088L22.1425 79.6939C21.7111 80.1246 21.1347 80.3768 20.5283 80.4022L20.427 80.4043L20.3257 80.4022Z" fill="#EF6497"/>
<path fill-rule="evenodd" clip-rule="evenodd" d="M53.9717 67.6698C53.9709 65.7045 52.377 64.1118 50.4117 64.1125L36.9712 64.1178C36.8015 64.1179 36.6348 64.1307 36.4714 64.1537L35.622 64.154C33.6567 64.1548 32.064 65.7486 32.0647 67.7141L32.0784 103.052C32.0792 105.017 33.6732 106.61 35.6385 106.609H50.4282C52.3935 106.608 53.9862 104.973 53.9855 103.008L53.9717 67.6698Z" fill="#8533AD"/>
<path fill-rule="evenodd" clip-rule="evenodd" d="M50.1491 65.698L48.8333 65.6985C48.6192 65.6985 48.4456 65.8723 48.4457 66.0864L48.446 66.6358C48.4461 67.057 48.1047 67.3986 47.6835 67.3988L39.6642 67.4019C39.2429 67.4021 38.9013 67.0607 38.9011 66.6396L38.901 66.0901C38.9009 65.876 38.7273 65.7024 38.5132 65.7026L37.1972 65.7031C35.7459 65.7036 34.5698 66.8806 34.5703 68.332L34.5836 102.362C34.5842 103.813 35.7611 104.989 37.2126 104.988L50.1645 104.983C51.6157 104.983 52.7919 103.806 52.7913 102.354L52.778 68.3248C52.7775 66.8735 51.6005 65.6974 50.1491 65.698Z" fill="#DDDDDD"/>
<path fill-rule="evenodd" clip-rule="evenodd" d="M33.4138 67.6778L33.4277 103.016C33.4285 104.981 35.0223 106.574 36.9878 106.573L35.6384 106.609C33.6731 106.61 32.0791 105.017 32.0784 103.052L32.0647 67.714C32.0639 65.7486 33.6566 64.1547 35.6219 64.1539L36.4713 64.1537C34.7427 64.3975 33.4133 65.8821 33.4138 67.6778ZM45.6709 66.0501L45.3942 66.0502C45.3382 66.0502 45.2929 66.0956 45.2929 66.1515C45.2929 66.2075 45.3384 66.2529 45.3942 66.2529L45.671 66.2527C45.727 66.2527 45.7722 66.2073 45.7722 66.1513C45.7722 66.0954 45.7269 66.0501 45.6709 66.0501ZM44.7638 66.0504L42.4974 66.0512C42.4414 66.0513 42.396 66.0967 42.396 66.1527C42.396 66.2085 42.4415 66.2539 42.4974 66.2539L44.7638 66.2531C44.8198 66.2529 44.8652 66.2076 44.8652 66.1516C44.8652 66.0957 44.8198 66.0504 44.7638 66.0504Z" fill="#6A298A"/>
<path fill-rule="evenodd" clip-rule="evenodd" d="M42.7386 89.4863C42.4635 89.4748 42.201 89.3664 41.9976 89.1804L41.9601 89.1447L39.1508 86.3348C38.6939 85.8777 38.6939 85.137 39.1508 84.6804C39.5974 84.2338 40.3148 84.2236 40.7736 84.65L40.8052 84.6804L42.7873 86.6625L47.5938 81.8565C48.0406 81.4101 48.7578 81.3999 49.2165 81.8261L49.2481 81.8565C49.6949 82.3032 49.7051 83.0206 49.2786 83.4794L49.2482 83.5109L43.6145 89.1448C43.4065 89.3525 43.1286 89.4741 42.8363 89.4863L42.7874 89.4873L42.7386 89.4863Z" fill="#EF6497"/>
</svg>
