<svg width="108" height="108" viewBox="0 0 108 108" fill="none" xmlns="http://www.w3.org/2000/svg">
<path fill-rule="evenodd" clip-rule="evenodd" d="M107.105 104.401L107.105 104.401V104.398H107.103L96.7994 87.5044C96.2095 86.5371 94.7019 85.9151 94.7019 85.9151C95.3232 85.9151 95.8268 85.4112 95.8268 84.7898V33.5249C95.8268 32.9036 95.3232 32.4001 94.7019 32.4001H13.0782C12.4568 32.4001 11.9533 32.9036 11.9533 33.5249V84.7898C11.9533 85.4112 12.4568 85.9151 13.0782 85.9151C13.0782 85.9151 11.5706 86.5371 10.9806 87.5044L0.677074 104.398H0.675386V104.401L0.675049 104.401H0.675386V106.699C0.675386 107.235 1.10941 107.669 1.64502 107.669H106.149C106.677 107.669 107.105 107.241 107.105 106.714V104.401H107.105Z" fill="#8533AD"/>
<path fill-rule="evenodd" clip-rule="evenodd" d="M91.981 82.5604H15.7988C15.5757 82.5604 15.3951 82.3798 15.3951 82.1571V36.6151C15.3951 36.3924 15.5757 36.2118 15.7988 36.2118H91.981C92.2037 36.2118 92.3846 36.3924 92.3846 36.6151V82.1571C92.3846 82.3798 92.2037 82.5604 91.981 82.5604Z" fill="#DDDDDD"/>
<path opacity="0.1" fill-rule="evenodd" clip-rule="evenodd" d="M1.09432 103.714L0.674805 104.401H107.105L106.685 103.714H1.09432Z" fill="white"/>
<path fill-rule="evenodd" clip-rule="evenodd" d="M11.8029 95.3617H95.4722C96.6136 95.3617 97.3153 94.1123 96.7206 93.1376L93.4995 87.8564C93.2342 87.421 92.7607 87.1554 92.2511 87.1554H15.024C14.514 87.1554 14.0409 87.421 13.7753 87.8564L10.5542 93.1376C9.95982 94.1123 10.6615 95.3617 11.8029 95.3617ZM59.7301 96.6943H47.545C46.9712 96.6943 46.4562 97.0473 46.2496 97.5826L45.0694 100.636C44.7177 101.546 45.389 102.526 46.3647 102.526H60.91C61.886 102.526 62.5573 101.546 62.2056 100.636L61.0254 97.5826C60.8188 97.0473 60.3038 96.6943 59.7301 96.6943ZM0.675293 106.699V104.398H107.105V106.713C107.105 107.241 106.677 107.669 106.149 107.669H1.64493C1.10966 107.669 0.675293 107.235 0.675293 106.699Z" fill="#5D2479"/>
<path fill-rule="evenodd" clip-rule="evenodd" d="M55.1648 12.3519C54.2309 11.1053 52.3679 11.1007 51.4288 12.3436C48.3269 16.449 42.4084 25.7138 41.8227 37.2663C41.0773 51.9599 45.0681 61.8621 46.6425 65.1473C46.9944 65.8818 47.7415 66.3443 48.5562 66.3443H58.0503C58.8647 66.3443 59.6118 65.8818 59.964 65.1473C61.5381 61.8621 65.5292 51.9599 64.7838 37.2663C64.2038 25.8244 58.2646 16.4888 55.1648 12.3519Z" fill="#EF6497"/>
<path fill-rule="evenodd" clip-rule="evenodd" d="M53.3029 39.1435C56.5638 39.1435 59.2074 36.4999 59.2074 33.2391C59.2074 29.9782 56.5638 27.3346 53.3029 27.3346C50.0423 27.3346 47.3987 29.9782 47.3987 33.2391C47.3987 36.4999 50.0423 39.1435 53.3029 39.1435ZM55.6587 66.3443H50.8788C51.0364 68.0885 50.8274 69.8657 50.2641 71.5244C50.0875 72.0436 49.8663 72.5675 49.4711 72.9483C48.9265 73.4729 48.1038 73.26 47.2779 73.0464C46.8517 72.9361 46.4247 72.8257 46.0346 72.8162C44.8886 72.7878 43.1586 73.2065 42.7479 74.2038C42.2165 75.4939 42.5541 76.6165 42.8484 77.5949C43.1205 78.4997 43.3555 79.2812 42.8319 79.9578C42.5424 80.332 42.0246 80.6717 41.4419 81.0539C40.2955 81.8058 38.8982 82.7224 38.4946 84.3908C37.8278 87.147 40.5238 89.4642 43.162 88.7338C43.7337 88.5753 44.4694 88.1918 45.1175 87.8539L45.1176 87.8539L45.1183 87.8535L45.1188 87.8532C45.3821 87.716 45.6309 87.5863 45.8483 87.4823C46.6011 87.1227 47.4777 86.8702 48.2627 87.1542C49.1323 87.4691 49.5984 88.2986 50.068 89.1346L50.0681 89.1347C50.2767 89.506 50.486 89.8786 50.7317 90.2079C51.5556 91.3123 52.9294 91.9835 54.3067 91.9551C55.6842 91.9264 57.0291 91.1985 57.8066 90.0611C57.9046 89.9176 57.9957 89.7666 58.0868 89.6155C58.3441 89.1886 58.6018 88.7611 59.0179 88.5008C59.7712 88.0297 60.6524 88.2867 61.5485 88.5482C61.9873 88.6762 62.4298 88.8053 62.8625 88.8504C64.0452 88.9736 65.2743 88.3813 65.9145 87.3794C66.8132 85.9741 66.4963 84.112 65.8569 82.5711L65.844 82.5398C65.7188 82.2386 65.5867 81.9204 65.644 81.6007C65.7413 81.0585 66.2942 80.7915 66.8119 80.5414L66.812 80.5414C66.9043 80.4968 66.9955 80.4527 67.0829 80.4078C68.8292 79.5082 69.613 77.1142 68.7367 75.3561C68.377 74.6348 67.793 74.0436 67.1336 73.5802C65.8389 72.6701 64.2215 72.229 62.6436 72.3557C62.0987 72.3996 61.5623 72.5083 61.0258 72.617L61.0257 72.617L61.0256 72.617L61.0255 72.6171C60.5142 72.7207 60.0028 72.8243 59.4839 72.8718C58.4204 72.969 57.2481 72.783 56.5124 72.009C55.9725 71.4415 55.7493 70.6452 55.6289 69.8714C55.4472 68.7044 55.4592 67.5082 55.6587 66.3443ZM40.5238 78.5867C40.5238 79.461 39.8151 80.1697 38.941 80.1697C38.0667 80.1697 37.358 79.461 37.358 78.5867C37.358 77.7124 38.0667 77.004 38.941 77.004C39.8151 77.004 40.5238 77.7124 40.5238 78.5867ZM69.3007 84.7154C70.1747 84.7154 70.8834 84.007 70.8834 83.1326C70.8834 82.2583 70.1747 81.5499 69.3007 81.5499C68.4264 81.5499 67.7177 82.2583 67.7177 83.1326C67.7177 84.007 68.4264 84.7154 69.3007 84.7154ZM46.044 92.7517C46.5369 92.7517 46.9366 92.3522 46.9366 91.859C46.9366 91.3659 46.5369 90.9661 46.044 90.9661C45.5508 90.9661 45.151 91.3659 45.151 91.859C45.151 92.3522 45.5508 92.7517 46.044 92.7517Z" fill="#BC3164"/>
<path fill-rule="evenodd" clip-rule="evenodd" d="M53.3223 19.3485C55.8651 19.3485 58.1863 19.6234 59.9765 20.0761C58.2883 16.7522 56.4958 14.1083 55.1971 12.372C54.256 11.1134 52.3801 11.1099 51.4338 12.3648C50.1265 14.0992 48.3234 16.7448 46.6298 20.0865C48.4251 19.6279 50.761 19.3485 53.3223 19.3485Z" fill="#EB3D7D"/>
<path fill-rule="evenodd" clip-rule="evenodd" d="M48.4993 33.2388C48.4993 35.8876 50.6543 38.0426 53.3034 38.0426C55.9518 38.0426 58.1066 35.8876 58.1066 33.2388C58.1066 30.5901 55.9518 28.4353 53.3034 28.4353C50.6543 28.4353 48.4993 30.5901 48.4993 33.2388ZM46.2982 33.2388C46.2982 29.3767 49.4404 26.2339 53.3034 26.2339C57.1658 26.2339 60.3077 29.3767 60.3077 33.2388C60.3077 37.1012 57.1658 40.244 53.3034 40.244C49.4404 40.244 46.2982 37.1012 46.2982 33.2388ZM51.2561 60.3255C51.0693 58.858 52.0384 57.5389 53.3031 57.5389C54.568 57.5389 55.5369 58.858 55.35 60.3255L53.6799 73.4375C53.6154 73.9454 52.991 73.9454 52.9265 73.4375L51.2561 60.3255ZM69.4727 70.3302L68.8457 67.1123C68.3568 64.6022 67.1564 62.2859 65.3874 60.4389L63.3659 58.3289C62.7954 57.7331 61.8007 57.9228 61.4892 58.6868L59.366 63.8932C59.1668 64.3827 59.3299 64.945 59.7603 65.2513L68.121 71.2011C68.758 71.6544 69.622 71.0979 69.4727 70.3302ZM43.24 58.3289C43.8109 57.7332 44.8058 57.9229 45.1173 58.6869L47.24 63.8933C47.4397 64.3827 47.2764 64.945 46.8456 65.2513L38.4853 71.2011C37.8485 71.6545 36.9842 71.0979 37.1338 70.3302L37.7605 67.112C38.2494 64.6022 39.4501 62.2859 41.2188 60.439L43.24 58.3289Z" fill="#F7B1CB"/>
</svg>
