<svg width="108" height="108" viewBox="0 0 108 108" fill="none" xmlns="http://www.w3.org/2000/svg">
<path fill-rule="evenodd" clip-rule="evenodd" d="M54.9413 9.59627C54.9393 4.66742 50.9419 0.673102 46.0131 0.67479L12.3053 0.687952C11.8797 0.68829 11.4615 0.720352 11.0518 0.778065L8.92148 0.77874C3.99263 0.780765 -0.00168697 4.77812 5.34499e-07 9.7073L0.0344255 98.3318C0.0364505 103.261 4.03414 107.255 8.96299 107.254H46.0546C50.9834 107.252 54.9777 103.15 54.9761 98.2211L54.9413 9.59627Z" fill="#8533AD"/>
<path fill-rule="evenodd" clip-rule="evenodd" d="M45.3549 4.65108L42.0548 4.65243C41.5178 4.65243 41.0825 5.08814 41.0828 5.6251L41.0835 7.00312C41.0838 8.05949 40.2276 8.91607 39.1712 8.91674L19.0592 8.9245C18.0029 8.92484 17.1459 8.0686 17.1456 7.01257L17.1453 5.63455C17.1449 5.09759 16.7096 4.66222 16.1726 4.66255L12.8722 4.6639C9.23258 4.66525 6.28283 7.61703 6.28418 11.257L6.31759 96.6009C6.31894 100.241 9.27072 103.19 12.911 103.189L45.3933 103.176C49.0329 103.175 51.9827 100.223 51.9813 96.583L51.9479 11.2391C51.9466 7.59914 48.9948 4.64973 45.3549 4.65108Z" fill="#DDDDDD"/>
<path fill-rule="evenodd" clip-rule="evenodd" d="M3.38368 9.61645L3.41844 98.2412C3.42047 103.17 7.41782 107.164 12.347 107.163L8.9629 107.254C4.03404 107.255 0.0363574 103.261 0.0346699 98.332L0.00024491 9.70724C-0.00178009 4.77805 3.99253 0.7807 8.92138 0.778675L11.0517 0.778C6.7165 1.38955 3.38233 5.11285 3.38368 9.61645ZM34.1237 5.53408L33.4298 5.53442C33.2894 5.53442 33.1756 5.64816 33.1756 5.78856C33.1756 5.92896 33.2897 6.0427 33.4298 6.0427L34.124 6.04236C34.2644 6.04236 34.3778 5.92828 34.3778 5.78788C34.3778 5.64782 34.2641 5.53408 34.1237 5.53408ZM31.8489 5.53489L26.1647 5.53692C26.0243 5.53726 25.9106 5.65099 25.9106 5.79139C25.9106 5.93146 26.0246 6.04519 26.1647 6.04519L31.8489 6.04317C31.9893 6.04283 32.103 5.92909 32.103 5.78869C32.103 5.64863 31.9893 5.53489 31.8489 5.53489Z" fill="#6A298A"/>
<path fill-rule="evenodd" clip-rule="evenodd" d="M33.4352 56.9669C32.3501 57.4006 31.1209 57.1839 30.2528 56.5331C30.1084 56.3884 29.8914 56.2438 29.747 56.0991C29.4576 55.7374 29.1682 55.376 29.0232 54.9419C29.0046 54.8846 28.9901 54.8271 28.9732 54.7695C29.3503 54.3225 29.841 53.9599 30.4152 53.7365C31.5124 53.2976 32.7555 53.5171 33.6329 54.1754C34.1451 54.541 34.5839 55.1261 34.8763 55.7844C34.8947 55.8293 34.9083 55.873 34.9237 55.9176C34.5523 56.3698 34.0589 56.733 33.4352 56.9669M93.0358 46.9749C93.2447 45.2996 93.0717 43.5504 92.448 41.8519L86.0117 24.2058C83.9147 18.4926 77.6227 15.5275 71.9095 17.6248L33.3629 31.6547C30.036 32.8842 27.5047 35.6326 26.4925 39.0315L23.455 50.1688C23.3142 50.6611 23.2121 51.1569 23.1427 51.6533L22.6632 53.3709C21.3468 57.9782 23.175 62.8784 27.1243 65.5843L36.778 72.1663C39.7763 74.2142 43.5064 74.653 46.8704 73.4097L85.8513 59.2215C90.9635 57.4097 93.8967 52.1622 93.0358 46.9749" fill="#EF6497"/>
<path fill-rule="evenodd" clip-rule="evenodd" d="M30.1196 56.435C31.0201 57.1401 32.2582 57.3905 33.4352 56.9669C35.2431 56.3161 36.1833 54.3632 35.4599 52.5552C34.8094 50.8196 32.7841 49.8795 31.0485 50.5302C29.3651 51.1617 28.43 53.0177 28.9688 54.7784C29.1485 54.5993 29.3319 54.4239 29.5189 54.2523C29.7878 54.0428 30.0859 53.8647 30.4154 53.7366C31.3326 53.3698 32.3493 53.4677 33.1716 53.8927L32.8039 54.1447C31.8274 54.813 30.9298 55.5843 30.1196 56.435ZM28.4421 58.4806C30.0219 59.7319 32.2242 60.1343 34.303 59.4256C37.4851 58.2684 39.0761 54.7972 37.9189 51.6874C36.7617 48.5776 33.3628 46.9867 30.1807 48.0715C27.0709 49.2287 25.4797 52.6276 26.5645 55.8097C26.7041 56.2194 26.8834 56.6014 27.0964 56.9539C23.4209 61.932 22.1032 68.6419 24.0679 74.0705C25.6763 78.4571 28.9173 81.9886 33.1957 84.0154C35.5082 85.0993 38.0062 85.6488 40.6198 85.6488C42.6165 85.6488 44.6704 85.2895 46.5642 84.6077C48.6302 83.833 50.5099 82.697 52.1668 81.2345C53.8238 79.7719 52.1668 78.4897 52.1668 78.4897C52.1668 78.4897 53.6676 76.884 52.002 78.666C50.3363 80.448 48.2471 81.8346 45.9602 82.6753L45.9575 82.6765C42.0814 84.1296 37.8389 83.9548 34.0117 82.183C30.1914 80.4143 27.3215 77.2957 25.9301 73.3989C24.2069 68.6604 25.3221 62.9094 28.4421 58.4806Z" fill="#8533AD"/>
<path fill-rule="evenodd" clip-rule="evenodd" d="M85.9392 55.9544L47.3926 69.9843C44.066 71.2141 40.3778 70.78 37.3246 69.2829L27.7785 62.7742C27.3713 62.4327 26.9888 62.0712 26.6289 61.6948C27.9407 58.7134 30.0603 56.0225 32.8039 54.145L33.1716 53.893C32.8684 53.7359 33.2183 53.864 33.6331 54.1754C34.1452 54.541 34.5838 55.1261 34.8765 55.7844C34.8945 55.8293 34.9081 55.873 34.9238 55.9173C35.2415 55.5309 35.4712 55.0803 35.6047 54.5802C35.7491 53.9294 35.7491 53.2063 35.4597 52.5552C35.1707 51.9045 34.7369 51.326 34.2305 50.9643C33.3627 50.3135 32.1332 50.0965 31.0487 50.5303C29.7468 51.0367 28.8787 52.2662 28.8067 53.5677C28.8067 54.0072 28.8642 54.3918 28.9733 54.7695C29.1852 54.5181 29.4366 54.2978 29.7148 54.1094C29.6479 54.1552 29.5825 54.2028 29.5189 54.2523C27.7489 55.8754 26.309 57.8492 25.2477 59.995C23.5335 57.5092 22.735 54.5663 23.1426 51.6534L22.663 53.3709C21.7421 56.5946 22.3619 59.9604 24.1692 62.6186C22.9047 66.4223 22.783 70.5202 24.0679 74.0707C25.6763 78.457 28.9173 81.9885 33.196 84.0153C35.5082 85.0993 38.0065 85.6491 40.6198 85.6491C42.6165 85.6491 44.6704 85.2895 46.5642 84.6076C48.6302 83.833 50.5099 82.6972 52.1668 81.2347C53.8238 79.7722 52.1668 78.4896 52.1668 78.4896C52.1668 78.4896 53.6676 76.8839 52.002 78.6659C50.3363 80.448 48.2471 81.8345 45.9602 82.6752C42.0814 84.1296 37.8389 83.955 34.0117 82.183C30.1914 80.4145 27.3215 77.2957 25.9301 73.3988C24.9107 70.5956 24.8872 67.4384 25.6821 64.41C26.1252 64.835 26.6056 65.229 27.1241 65.5844L36.7779 72.1663C39.7764 74.2142 43.5066 74.6531 46.8705 73.4097L85.8512 59.2216C90.9633 57.4097 93.8965 52.1622 93.0359 46.9749C92.5425 50.9351 89.9032 54.4804 85.9392 55.9544Z" fill="#BF5079"/>
<path fill-rule="evenodd" clip-rule="evenodd" d="M64.7142 30.5626L63.6039 30.4695C62.7927 30.3917 62.0744 30.8533 61.8554 31.678L56.0188 54.8936C55.818 55.7586 56.2981 56.5188 57.1116 56.5982L58.22 56.69C59.0313 56.7692 59.7511 56.3076 60.0103 55.4647L65.8058 32.2673C66.0069 31.402 65.5265 30.6424 64.7142 30.5626ZM70.991 48.1167C70.0553 48.5293 69.0923 47.8868 68.59 46.7481C67.9805 45.3655 68.1636 44.4594 69.1799 44.0108C70.1966 43.5628 71.0297 44.0203 71.639 45.403C72.1416 46.5416 72.0073 47.6687 70.991 48.1167ZM75.0948 43.8786C73.7326 40.7882 70.9285 39.9371 67.9608 41.2459C65.0336 42.5371 63.9375 45.4501 65.1747 48.2543C66.5372 51.3438 69.2832 52.1725 72.211 50.8816C75.1781 49.5728 76.3324 46.684 75.0948 43.8786ZM50.5477 41.7169C51.0499 42.8557 51.9728 43.5165 52.9477 43.0862C53.9233 42.6558 54.0989 41.5105 53.5966 40.3718C52.9872 38.9904 52.153 38.5321 51.1367 38.9803C50.1212 39.4283 49.9382 40.3355 50.5477 41.7169ZM49.9176 36.2154C52.8445 34.9242 55.6495 35.7761 57.0119 38.8656C58.2492 41.6711 57.0944 44.5599 54.1675 45.8511C51.2408 47.142 48.4948 46.3129 47.1323 43.2231C45.8948 40.418 46.99 37.5063 49.9176 36.2154Z" fill="white"/>
</svg>
