<svg width="108" height="108" viewBox="0 0 108 108" fill="none" xmlns="http://www.w3.org/2000/svg">
<path fill-rule="evenodd" clip-rule="evenodd" d="M54.9413 9.59627C54.9393 4.66742 50.9419 0.673102 46.0131 0.67479L12.3053 0.687952C11.8797 0.68829 11.4615 0.720352 11.0518 0.778065L8.92148 0.77874C3.99263 0.780765 -0.00168697 4.77812 5.34499e-07 9.7073L0.0344255 98.3318C0.0364505 103.261 4.03414 107.255 8.96299 107.254H46.0546C50.9834 107.252 54.9777 103.15 54.9761 98.2211L54.9413 9.59627Z" fill="#8533AD"/>
<path fill-rule="evenodd" clip-rule="evenodd" d="M45.3549 4.65108L42.0548 4.65243C41.5178 4.65243 41.0825 5.08814 41.0828 5.6251L41.0835 7.00312C41.0838 8.05949 40.2276 8.91607 39.1712 8.91674L19.0592 8.9245C18.0029 8.92484 17.1459 8.0686 17.1456 7.01257L17.1453 5.63455C17.1449 5.09759 16.7096 4.66222 16.1726 4.66255L12.8722 4.6639C9.23258 4.66525 6.28283 7.61703 6.28418 11.257L6.31759 96.6009C6.31894 100.241 9.27072 103.19 12.911 103.189L45.3933 103.176C49.0329 103.175 51.9827 100.223 51.9813 96.583L51.9479 11.2391C51.9466 7.59914 48.9948 4.64973 45.3549 4.65108Z" fill="#DDDDDD"/>
<path fill-rule="evenodd" clip-rule="evenodd" d="M3.38368 9.61645L3.41844 98.2412C3.42047 103.17 7.41782 107.164 12.347 107.163L8.9629 107.254C4.03404 107.255 0.0363574 103.261 0.0346699 98.332L0.00024491 9.70724C-0.00178009 4.77805 3.99253 0.7807 8.92138 0.778675L11.0517 0.778C6.7165 1.38955 3.38233 5.11285 3.38368 9.61645ZM34.1237 5.53408L33.4298 5.53442C33.2894 5.53442 33.1756 5.64816 33.1756 5.78856C33.1756 5.92896 33.2897 6.0427 33.4298 6.0427L34.124 6.04236C34.2644 6.04236 34.3778 5.92828 34.3778 5.78788C34.3778 5.64782 34.2641 5.53408 34.1237 5.53408ZM31.8489 5.53489L26.1647 5.53692C26.0243 5.53726 25.9106 5.65099 25.9106 5.79139C25.9106 5.93146 26.0246 6.04519 26.1647 6.04519L31.8489 6.04317C31.9893 6.04283 32.103 5.92909 32.103 5.78869C32.103 5.64863 31.9893 5.53489 31.8489 5.53489Z" fill="#6A298A"/>
<path fill-rule="evenodd" clip-rule="evenodd" d="M84.1037 53.8414C84.1037 70.5423 70.5649 84.0807 53.8643 84.0807C37.1638 84.0807 23.625 70.5423 23.625 53.8414C23.625 37.1405 37.1638 23.602 53.8643 23.602C70.5649 23.602 84.1037 37.1405 84.1037 53.8414" fill="#EF6497"/>
<path fill-rule="evenodd" clip-rule="evenodd" d="M53.8645 23.6019C50.928 23.6019 48.0898 24.0222 45.4051 24.8028L46.278 26.6863C46.7668 27.7421 47.8345 28.4245 48.9985 28.4245H49.4993L49.8172 28.8482C50.3803 29.5995 51.2768 30.0481 52.2158 30.0481H53.6879C54.2838 30.0481 54.8601 29.8727 55.3505 29.5444L56.9895 28.4522C57.8186 27.8985 58.3162 26.9756 58.3232 25.98L59.1475 25.5809C59.7135 25.307 60.1627 24.8594 60.4579 24.325C58.3355 23.8531 56.1292 23.6019 53.8645 23.6019ZM23.7048 51.6491L23.7186 51.6412L23.7187 51.6411C23.8025 51.5928 23.8861 51.5446 23.9655 51.4886L26.1594 53.7492V54.9076C26.1594 56.0464 26.7266 57.1012 27.6753 57.7291L30.7805 59.7852L30.2791 61.1226C30.0496 61.7355 30.0024 62.3971 30.1424 63.0358L31.1774 67.7504C31.4113 68.8146 32.1488 69.7057 33.1494 70.1344L34.7906 70.8376L33.4497 76.1483C35.7991 78.2995 38.4885 80.0851 41.429 81.4138L43.4303 78.0486L45.6866 77.4842C46.9318 77.1732 47.8818 76.2028 48.166 74.9513L48.5821 73.1219L52.9665 67.6411C53.4443 67.0434 53.7078 66.2927 53.7078 65.5278V62.2989C53.7078 60.9671 52.9221 59.7546 51.7062 59.2101H51.7055L47.657 57.3989L46.1408 55.5034C45.4952 54.6967 44.532 54.2336 43.4986 54.2336H39.0186L35.112 52.5188V52.5185C35.112 51.6862 34.8136 50.9003 34.2684 50.2824L34.2904 50.2934C34.7582 50.5276 35.2816 50.6513 35.8045 50.6513H36.6868C38.5527 50.6513 40.0708 49.1332 40.0708 47.2669V44.9556L48.8852 38.1273C49.9602 37.3363 50.4701 35.9913 50.1859 34.6835L49.8305 33.0479C49.5381 31.7039 48.4738 30.679 47.1203 30.4366L44.7133 30.0057L42.6746 25.9887C42.6393 25.9194 42.6015 25.853 42.5622 25.7872C32.105 30.0038 24.5468 39.8963 23.7048 51.6491ZM83.8578 55.6339L84.0334 55.8895C83.3853 65.5749 78.179 74.011 70.5393 79.0705C70.3439 79.2002 70.0804 79.0624 70.0716 78.8279L69.7379 69.9426C69.7348 69.8601 69.6983 69.7824 69.6363 69.7279L69.1755 69.3209C68.6375 68.846 68.302 68.1912 68.2312 67.477L67.9139 64.2504C67.9007 64.115 67.798 64.0052 67.6639 63.9825L62.6491 63.137C61.5282 62.9485 60.5102 62.369 59.7749 61.5021L57.1753 58.4354C56.6953 57.8697 56.4321 57.1521 56.4321 56.4098V51.7223C56.4321 50.6732 56.7743 49.6531 57.407 48.8158L58.9251 46.8079C59.7768 45.682 61.074 45.0291 62.4841 45.0162C63.5896 45.0068 65.2569 44.9945 66.7832 44.9898C67.0489 44.9888 67.1751 44.676 66.9957 44.4802C66.9252 44.4031 66.8578 44.3225 66.7936 44.2378C66.4068 43.7279 66.1814 43.1345 66.1298 42.5198C66.1166 42.3668 65.9831 42.2519 65.8295 42.2475L65.1213 42.2277C65.0479 42.2258 64.9762 42.2504 64.9198 42.2973L63.7224 43.2954C63.0728 43.8368 62.2537 44.1333 61.408 44.1333H60.1133C58.1164 44.1333 56.4976 42.5148 56.4976 40.5176V39.3073C56.4976 38.5113 56.7821 37.7823 57.2521 37.2103C57.3232 37.1238 57.3415 37.0092 57.3021 36.9037C57.1945 36.6145 57.1344 36.3022 57.1344 35.9758V33.0365C57.1344 31.9525 57.7815 31.0163 58.7101 30.5946C58.734 30.5835 58.7564 30.5697 58.7762 30.5524C58.9839 30.3739 59.1826 30.1992 59.3415 30.0554C59.3853 30.0151 59.4149 29.9644 59.4293 29.9065L59.5958 29.2392L59.6726 28.8561C59.9522 27.4629 61.1753 26.4607 62.5965 26.4607C64.2431 26.4607 65.5783 27.7956 65.5783 29.4425V31.4054C65.5783 31.633 65.8241 31.7834 66.0218 31.6704C66.4515 31.424 66.9343 31.2741 67.4316 31.2386L70.1374 30.7881C70.2431 30.7705 70.3281 30.6969 70.3678 30.5974C70.5576 30.1233 70.8547 29.7019 71.2303 29.3638C71.3335 29.271 71.4915 29.2684 71.6039 29.35C79.1778 34.8455 84.1039 43.7679 84.1039 53.8413C84.1039 54.4819 84.0816 55.1171 84.0422 55.7479C84.033 55.7425 84.0238 55.7371 84.0145 55.7318C83.9615 55.701 83.9081 55.6701 83.8578 55.6339Z" fill="#F0EDFF"/>
<path fill-rule="evenodd" clip-rule="evenodd" d="M47.581 24.2576C49.6081 23.8292 51.7095 23.6019 53.8644 23.6019C55.1581 23.6019 56.4329 23.6835 57.6838 23.8415L56.5679 24.3813C56.2938 24.5138 56.1197 24.7918 56.1197 25.0961V25.9583C56.1197 26.2243 55.9869 26.472 55.7659 26.6196L54.1285 27.7109C53.9982 27.7981 53.8449 27.8447 53.6878 27.8447H52.2156C51.9654 27.8447 51.7299 27.7266 51.5801 27.5268L50.8395 26.539C50.6893 26.3392 50.4539 26.2211 50.204 26.2211H48.9984C48.689 26.2211 48.4079 26.0417 48.2776 25.7606L47.581 24.2576ZM24.0352 48.8635C24.3229 48.8764 24.608 48.9872 24.8287 49.2145L28.0292 52.5123C28.2433 52.7323 28.3629 53.0276 28.3629 53.3345V54.9074C28.3629 55.3037 28.5615 55.6735 28.8917 55.892L32.6758 58.3975C33.1344 58.7012 33.3227 59.2817 33.1294 59.7966L32.3425 61.8955C32.2622 62.1089 32.2455 62.3406 32.2946 62.5631L33.3293 67.2774C33.4111 67.6494 33.6673 67.9592 34.0174 68.1093L36.4644 69.1581C36.9645 69.3722 37.2535 69.9006 37.1641 70.4373L35.323 77.7292C36.6189 78.7365 37.9979 79.6417 39.4499 80.4305L41.749 76.5649C41.9095 76.2901 42.1739 76.0915 42.4824 76.0144L45.1525 75.3467C45.5844 75.2388 45.9187 74.8969 46.0175 74.4629L46.4853 72.4046C46.5249 72.2306 46.6033 72.0678 46.7147 71.9287L51.2455 66.2651C51.4133 66.0558 51.5042 65.7958 51.5042 65.5276V62.299C51.5042 61.8335 51.2307 61.4114 50.8058 61.2213L46.5309 59.3091C46.3594 59.2319 46.2086 59.1155 46.0912 58.9688L44.4204 56.8803C44.1963 56.6002 43.8573 56.4371 43.4984 56.4371H38.8037C38.6403 56.4371 38.4789 56.4031 38.3293 56.3373L33.6145 54.2678C33.1854 54.0792 32.9084 53.6552 32.9084 53.1865V52.5183C32.9084 52.2051 32.7841 51.9048 32.5625 51.6835L30.6371 49.7581C30.4158 49.5365 30.2911 49.2362 30.2911 48.923V47.7411C30.2911 46.8635 31.215 46.2925 32 46.685L35.2764 48.3231C35.4404 48.4052 35.6211 48.448 35.8043 48.448H36.6866C37.3388 48.448 37.8673 47.9192 37.8673 47.267V44.453C37.8673 44.1039 38.0221 43.7725 38.2897 43.5481L47.563 36.3644C47.9483 36.0906 48.1334 35.6131 48.0327 35.1513L47.6776 33.5168C47.5759 33.0496 47.2026 32.6899 46.7317 32.6058L43.8236 32.0849C43.4591 32.0197 43.1462 31.7874 42.9788 31.4569L40.7093 26.9853C40.6561 26.8802 40.5878 26.7874 40.5094 26.7055C31.9317 30.9353 25.6505 39.1111 24.0352 48.8635ZM61.5517 36.453H59.8151C59.5517 36.453 59.338 36.2393 59.338 35.9755V33.0365C59.338 32.8609 59.4327 32.7073 59.574 32.6245C59.6126 32.6019 59.6513 32.5796 59.69 32.5573L59.6904 32.557C59.8945 32.4393 60.0975 32.3223 60.276 32.1684C60.7352 31.7727 61.3773 31.2005 61.4113 31.0645L61.7459 29.723L61.8813 29.0475C61.9263 28.8246 62.1221 28.6641 62.3493 28.6641H62.8973C63.1611 28.6641 63.3748 28.8778 63.3748 29.1413V31.6386V32.8867C63.3748 33.0154 63.3229 33.1388 63.2307 33.2285L62.1734 34.2603C62.0812 34.35 62.0292 34.4734 62.0292 34.6018V35.9755C62.0292 36.2393 61.8155 36.453 61.5517 36.453ZM82.9387 51.7965C82.255 51.162 81.2002 51.1528 80.5046 51.7745C80.085 52.1487 79.6994 52.5085 79.6094 52.6414C79.4624 52.8573 79.4791 53.1459 79.627 53.3619L83.6306 59.1973C83.6306 59.1976 83.6309 59.1979 83.6306 59.1983C83.3923 60.531 83.0649 61.8329 82.6579 63.0992V63.0995L81.1486 65.1367C81.0693 65.244 81.0265 65.3737 81.0265 65.5071L81.0268 67.1417V67.1427C78.9578 71.3596 75.9361 75.0232 72.242 77.8545C72.2417 77.8548 72.2411 77.8548 72.2407 77.8546C72.2402 77.8544 72.2398 77.854 72.2398 77.8535L71.913 69.1499C71.9341 68.9479 71.8561 68.748 71.704 68.6139L70.6338 67.6696C70.5145 67.5641 70.4393 67.4175 70.4239 67.2588L69.9662 62.6075C69.9385 62.3248 69.7245 62.0954 69.444 62.0482L62.9076 60.9465C62.369 60.8558 61.8795 60.5773 61.5264 60.1608L58.7848 56.9269C58.6884 56.8133 58.6356 56.6691 58.6356 56.5199V51.6215C58.6356 51.1173 58.7999 50.6272 59.1039 50.2252L60.6825 48.1367C61.1153 47.5648 61.7867 47.2261 62.504 47.2195C64.2324 47.2047 67.5079 47.1808 69.2709 47.1959C70.1799 47.2038 71.0827 47.0904 71.9618 46.855C73.8136 46.3589 75.3075 44.3095 75.3075 42.3925V40.9191C75.3075 40.3302 74.8482 39.8436 74.2606 39.8086L73.7157 39.7765C73.343 39.7545 72.9842 39.921 72.7604 40.2194L70.749 42.9012C70.5391 43.181 70.2092 43.346 69.8595 43.346H69.4358C68.6996 43.346 68.1664 42.6431 68.365 41.9336L68.4865 41.4996C68.6817 40.803 68.1698 40.1083 67.4465 40.0881L64.6561 40.0107C64.3857 40.0032 64.1216 40.0947 63.9136 40.2679L62.2283 41.672C62.0284 41.8389 61.7766 41.9302 61.5163 41.9302H59.8131C59.1987 41.9302 58.7007 41.4322 58.7007 40.8175V39.3088C58.7007 38.6944 59.1987 38.1964 59.8131 38.1964H62.093C62.3932 38.1964 62.6809 38.0755 62.8903 37.8599L66.8721 33.7676C67.0801 33.5539 67.3653 33.4333 67.6634 33.4333H67.6637L71.2017 32.8447C71.7116 32.7663 72.2152 32.2892 72.3204 31.7836L72.3597 31.5957C72.4664 31.0823 72.892 30.7594 73.3509 30.7207C73.3515 30.7207 73.3518 30.7207 73.3522 30.721C79.6931 36.0711 83.8027 43.9812 84.086 52.8585C84.0863 52.8601 84.0848 52.8608 84.0838 52.8598L82.9387 51.7965Z" fill="#8533AD"/>
</svg>
