<svg width="108" height="111" viewBox="0 0 108 111" fill="none" xmlns="http://www.w3.org/2000/svg">
<g clip-path="url(#clip0_1_4484)">
<path fill-rule="evenodd" clip-rule="evenodd" d="M56.794 9.17739C56.7905 4.08107 52.6576 -0.0483398 47.5613 -0.0483398L12.7004 -0.0343773C12.2606 -0.0343773 11.8277 0.000528935 11.4054 0.0598696H9.20278C4.10646 0.0598696 -0.0264376 4.19626 -0.022947 9.29607L0.0119601 100.956C0.0119601 106.056 4.14835 110.186 9.24467 110.182H47.6067C52.703 110.182 56.8359 105.938 56.8324 100.841L56.7975 9.18088L56.794 9.17739Z" fill="#8533AD"/>
<path fill-rule="evenodd" clip-rule="evenodd" d="M46.8806 4.06361H43.4668C42.9118 4.06361 42.4615 4.51739 42.4615 5.0724V6.49658C42.4615 7.58914 41.5749 8.47576 40.4858 8.47576L19.6852 8.48274C18.5926 8.48274 17.706 7.59612 17.706 6.50356V5.07938C17.706 4.52437 17.2557 4.07408 16.7007 4.07408H13.2868C9.52395 4.07408 6.47314 7.12838 6.47314 10.8948L6.50805 99.1623C6.50805 102.929 9.56235 105.976 13.3287 105.976L46.9225 105.962C50.6854 105.962 53.7362 102.908 53.7362 99.1413L53.7013 10.8738C53.7013 7.11093 50.647 4.06012 46.8806 4.06012V4.06361Z" fill="#DDDDDD"/>
<path fill-rule="evenodd" clip-rule="evenodd" d="M3.471 9.19834L3.5059 100.859C3.5059 105.955 7.6423 110.088 12.7421 110.084L9.241 110.179C4.14469 110.179 0.00829441 106.049 0.00829441 100.953L-0.0266113 9.29258C-0.0266113 4.19627 4.1028 0.0598755 9.19911 0.0598755H11.4017C6.91625 0.691679 3.471 4.54184 3.471 9.20183V9.19834ZM35.2636 4.97817H34.5446C34.398 4.97817 34.2828 5.09685 34.2828 5.23997C34.2828 5.38308 34.4014 5.50176 34.5446 5.50176H35.2636C35.4102 5.50176 35.5254 5.38308 35.5254 5.23648C35.5254 5.08987 35.4067 4.97468 35.2636 4.97468V4.97817ZM32.9109 4.97817H27.0327C26.8861 4.97817 26.7709 5.09685 26.7709 5.24346C26.7709 5.39006 26.8896 5.50525 27.0327 5.50525H32.9109C33.0576 5.50525 33.1727 5.38657 33.1727 5.23997C33.1727 5.09336 33.0541 4.97817 32.9109 4.97817Z" fill="#6A298A"/>
<path fill-rule="evenodd" clip-rule="evenodd" d="M86 54.9849C86 72.1762 72.062 86.1143 54.8706 86.1143C37.6793 86.1143 23.7412 72.1762 23.7412 54.9849C23.7412 37.7936 37.6793 23.8555 54.8706 23.8555C72.062 23.8555 86 37.7936 86 54.9849Z" fill="#EF6497"/>
<path d="M40.8488 51.4663C40.8104 51.4663 40.772 51.4663 40.7336 51.4663C40.6777 51.4663 40.6254 51.4663 40.566 51.4663L40.9395 48.6285H49.4811C50.8704 48.6285 51.9385 47.6476 52.0711 46.2548L52.2422 44.4502C52.2561 44.3175 52.2561 44.1919 52.2492 44.0662H52.2561V44.0697H52.2526C52.2003 42.8724 51.366 42.0242 50.1094 42.0242H38.2901C36.2865 42.0242 34.7332 43.7276 34.3841 45.7417L33.323 53.5363C33.2881 53.8365 33.2776 54.1157 33.2881 54.374C33.3718 56.4754 34.8484 57.2503 36.3633 57.2503C43.5749 57.2503 44.4197 58.1265 44.3115 59.2644C44.2696 59.6972 44.109 60.0498 43.8542 60.336C43.177 61.104 41.8331 61.3797 40.2938 61.3797C38.8486 61.3797 37.044 60.8631 35.4697 60.0882C33.8954 59.3133 32.562 59.7775 31.7731 61.0167L30.8586 62.4618C30.5095 62.9994 30.3664 63.5334 30.3908 64.0326C30.4292 64.832 30.9005 65.544 31.6475 66.0223C33.7837 67.415 37.0928 67.8793 39.9307 67.8793C46.0498 67.8793 51.2439 65.3556 51.9106 59.4704C51.9106 59.4599 51.914 59.4389 51.914 59.4389C51.914 59.4389 51.9315 59.2958 51.935 59.2609C52.3923 54.3601 49.4252 51.5815 40.8488 51.4733" fill="white"/>
<path d="M61.6459 58.4511C61.44 57.5889 61.4016 56.5941 61.5377 55.4736C62.1835 50.304 65.5205 48.1503 69.828 48.1503C71.4441 48.1503 73.0603 48.5796 74.673 49.4418C75.7481 49.9793 76.9349 49.6582 77.7971 48.5796L78.7675 47.2881C79.4516 46.4538 79.49 45.6195 79.1165 44.9738C78.9594 44.7015 78.7326 44.4642 78.4463 44.2722C76.0762 42.656 73.7095 42.0102 70.0479 42.0102C62.7245 42.0102 55.6176 47.3928 54.5425 55.2537C54.3575 56.7058 54.354 58.0636 54.5251 59.3133C55.2476 64.6365 59.1362 67.9561 65.8486 67.9561C70.8018 67.9561 74.4635 66.5563 75.8633 65.6941C76.7254 65.0484 77.0466 64.4026 77.1548 63.6486L78.3381 55.5713C78.4289 54.9919 78.3102 54.4648 78.0449 54.0494C78.0379 54.0389 78.017 54.0075 78.0135 54.0005C77.633 53.442 76.9803 53.093 76.1844 53.093H69.7232C68.6481 53.093 67.7859 53.847 67.6777 54.9221L67.4613 56.8594C67.4055 57.1386 67.409 57.3969 67.4613 57.6238C67.6114 58.2766 68.1699 58.6885 68.9693 58.6885L71.1474 58.6082L70.938 60.8422L70.7984 61.9208C69.5068 62.3501 68.6446 62.3501 67.4613 62.3501C64.2569 62.3501 62.2463 60.9783 61.6459 58.4581C61.6459 58.4581 61.6459 58.4546 61.6459 58.4511Z" fill="white"/>
<path d="M79.1514 44.9947H79.1479V44.9912L79.1514 44.9947Z" fill="#DDDDDD"/>
<path fill-rule="evenodd" clip-rule="evenodd" d="M63.9637 14.724H47.0935C46.3011 14.724 45.6449 14.0643 45.6449 13.2754C45.6449 12.4865 46.3046 11.8268 47.0935 11.8268H63.9637C64.7526 11.8268 65.4123 12.4865 65.4123 13.2754C65.4123 14.0643 64.7526 14.724 63.9637 14.724Z" fill="#A58AB2"/>
<path fill-rule="evenodd" clip-rule="evenodd" d="M57.7679 19.733C57.7679 18.9407 57.1081 18.2844 56.3192 18.2844H30.356C29.5636 18.2844 28.9073 18.9442 28.9073 19.733C28.9073 20.5219 29.5671 21.1817 30.356 21.1817H56.3192C57.1116 21.1817 57.7679 20.5219 57.7679 19.733Z" fill="#A58AB2"/>
<path fill-rule="evenodd" clip-rule="evenodd" d="M63.9638 21.1852C63.1714 21.1852 62.5151 20.5254 62.5151 19.7365C62.5151 18.9477 63.1749 18.2879 63.9638 18.2879H79.3853C80.1777 18.2879 80.834 18.9477 80.834 19.7365C80.834 20.5254 80.1742 21.1852 79.3853 21.1852H63.9638Z" fill="#A58AB2"/>
<path fill-rule="evenodd" clip-rule="evenodd" d="M75.5526 91.1583C75.5526 90.3659 74.8929 89.7097 74.104 89.7097H48.1408C47.3484 89.7097 46.6921 90.3694 46.6921 91.1583C46.6921 91.9471 47.3519 92.6069 48.1408 92.6069H74.2367C75.0291 92.6069 75.6853 91.9471 75.5561 91.1583H75.5526Z" fill="#A58AB2"/>
<path fill-rule="evenodd" clip-rule="evenodd" d="M51.0379 95.2458H35.6163C34.824 95.2458 34.1677 95.9055 34.1677 96.6944C34.1677 97.4833 34.8275 98.143 35.6163 98.143H51.0379C51.8303 98.143 52.4865 97.4833 52.4865 96.6944C52.4865 95.9055 51.8268 95.2458 51.0379 95.2458Z" fill="#A58AB2"/>
</g>
<defs>
<clipPath id="clip0_1_4484">
<rect width="108" height="110.244" fill="white" transform="translate(0 -0.0483398)"/>
</clipPath>
</defs>
</svg>
