<svg width="108" height="109" viewBox="0 0 108 109" fill="none" xmlns="http://www.w3.org/2000/svg">
<path fill-rule="evenodd" clip-rule="evenodd" d="M55.3813 53.5484V11.0275H51.8478V53.5289L9.5225 46.4939L8.94299 49.9789L50.9323 56.9587L26.926 98.7179L29.9895 100.479L53.6735 59.2804L77.3163 100.408L80.3799 98.6468L56.4147 56.9586L98.4038 49.9789L97.8242 46.4939L55.3813 53.5484Z" fill="#DDDDDD"/>
<path fill-rule="evenodd" clip-rule="evenodd" d="M62.5594 9.94486C62.5594 14.8848 58.5545 18.8897 53.6145 18.8897C48.6745 18.8897 44.67 14.8848 44.67 9.94486C44.67 5.00488 48.6745 1 53.6145 1C58.5545 1 62.5594 5.00488 62.5594 9.94486ZM36.9552 99.6998C36.9552 104.64 32.9503 108.645 28.0103 108.645C23.0704 108.645 19.0658 104.64 19.0658 99.6998C19.0658 94.7598 23.0704 90.7549 28.0103 90.7549C32.9503 90.7549 36.9552 94.7598 36.9552 99.6998ZM79.2187 108.645C84.159 108.645 88.1636 104.64 88.1636 99.6998C88.1636 94.7598 84.159 90.7549 79.2187 90.7549C74.2787 90.7549 70.2746 94.7598 70.2746 99.6998C70.2746 104.64 74.2787 108.645 79.2187 108.645ZM18.4294 48.1767C18.4294 53.1166 14.4245 57.1215 9.48456 57.1215C4.54457 57.1215 0.540039 53.1166 0.540039 48.1767C0.540039 43.2367 4.54457 39.2318 9.48456 39.2318C14.4245 39.2318 18.4294 43.2367 18.4294 48.1767ZM97.7445 57.1215C102.684 57.1215 106.689 53.1166 106.689 48.1767C106.689 43.2367 102.684 39.2318 97.7445 39.2318C92.8045 39.2318 88.8 43.2367 88.8 48.1767C88.8 53.1166 92.8045 57.1215 97.7445 57.1215Z" fill="#EF6497"/>
<path fill-rule="evenodd" clip-rule="evenodd" d="M79.2706 53.9946C79.2706 68.1924 67.761 79.7021 53.5628 79.7021C39.365 79.7021 27.8553 68.1924 27.8553 53.9946C27.8553 39.7965 39.365 28.2868 53.5628 28.2868C67.761 28.2868 79.2706 39.7965 79.2706 53.9946Z" fill="#8533AD"/>
<path fill-rule="evenodd" clip-rule="evenodd" d="M35.6488 50.0686L35.7918 50.212C36.3984 50.8206 37.3624 50.797 37.9854 50.2054C42.1285 46.2675 47.7052 43.8363 53.8485 43.8363C59.9924 43.8363 65.5684 46.2675 69.711 50.2054C70.3346 50.797 71.2986 50.8206 71.9052 50.2114L72.0481 50.0686C72.6737 49.4409 72.635 48.4289 71.9937 47.8177C67.2571 43.3086 60.8777 40.5248 53.8485 40.5248C46.8193 40.5248 40.4399 43.3093 35.7033 47.8177C35.0613 48.4289 35.0232 49.4409 35.6488 50.0686ZM40.8163 52.9413C44.2407 49.7468 48.8147 47.7808 53.8484 47.7808C58.8821 47.7808 63.4561 49.7468 66.8806 52.9413C67.5298 53.5473 67.5613 54.5697 66.9344 55.1988L66.7934 55.3402C66.2169 55.9186 65.2779 55.9646 64.6824 55.4054C61.8423 52.7366 58.0375 51.093 53.8484 51.093C49.6593 51.093 45.8539 52.7366 43.0138 55.4054C42.4183 55.9646 41.4792 55.9186 40.9028 55.3402L40.7618 55.1988C40.1349 54.5697 40.167 53.5473 40.8163 52.9413ZM46.1831 58.339C48.2265 56.521 50.9099 55.4137 53.8484 55.4137C56.7876 55.4137 59.4704 56.521 61.5137 58.3383C62.1748 58.9259 62.1853 59.9642 61.561 60.5905L61.3996 60.7531C60.8088 61.3452 59.8776 61.336 59.25 60.7833C57.8027 59.5095 55.9226 58.7259 53.8484 58.7259C51.7749 58.7259 49.8948 59.5095 48.4468 60.784C47.8193 61.3367 46.8887 61.3459 46.2972 60.7531L46.1359 60.5912C45.5116 59.9648 45.5221 58.9265 46.1831 58.339ZM53.8484 69.9471C55.4479 69.9471 56.7456 68.6456 56.7456 67.0402C56.7456 65.4348 55.4479 64.1333 53.8484 64.1333C52.2483 64.1333 50.9512 65.4348 50.9512 67.0402C50.9512 68.6456 52.2483 69.9471 53.8484 69.9471Z" fill="white"/>
</svg>
