<?xml version="1.0" encoding="UTF-8"?>
<svg id="Layer_1" xmlns="http://www.w3.org/2000/svg" xmlns:xlink="http://www.w3.org/1999/xlink" version="1.1" viewBox="0 0 943 832">
  <!-- Generator: Adobe Illustrator 29.3.0, SVG Export Plug-In . SVG Version: 2.1.0 Build 67)  -->
  <defs>
    <style>
      .st0, .st1 {
        opacity: .1;
      }

      .st0, .st1, .st2 {
        isolation: isolate;
      }

      .st3 {
        fill: #8533ad;
      }

      .st4 {
        fill: #da9;
      }

      .st5 {
        fill: #55057f;
      }

      .st6 {
        fill: #321a4c;
      }

      .st6, .st7 {
        display: none;
      }

      .st8 {
        fill: #cc9892;
      }

      .st9 {
        fill: #d19d97;
      }

      .st10 {
        fill: #d8a594;
      }

      .st1, .st2 {
        fill: #14001f;
      }

      .st2 {
        opacity: .2;
      }

      .st11 {
        fill: #6a298a;
      }

      .st7 {
        fill: #ffd699;
      }

      .st12 {
        fill: #609;
      }

      .st13 {
        fill: #a58ab2;
      }

      .st14 {
        fill: #a178b5;
      }

      .st15 {
        fill: #c299d6;
      }

      .st16 {
        fill: #461e5f;
      }
    </style>
  </defs>
  <g>
    <g>
      <path class="st15" d="M650.1,379.6h-326.3c-5.1,0-9.3-4.2-9.3-9.3v-164.7c0-5.1,4.2-9.3,9.3-9.3h326.3c5.1,0,9.3,4.2,9.3,9.3v164.7c0,5-4.2,9.3-9.3,9.3Z"/>
      <path class="st14" d="M649.6,384h-325.5c-7.8,0-14.1-6.3-14.1-14.1v-163.8c0-7.8,6.3-14.1,14.1-14.1h325.5c7.8,0,14.1,6.3,14.1,14.1v163.8c.1,7.7-6.3,14.1-14.1,14.1ZM324.1,200.5c-2.9,0-5.3,2.4-5.3,5.3v161.2c0,2.9,2.4,5.3,5.3,5.3h325.8c2.9,0,5.3-2.4,5.3-5.3v-161.3c0-2.9-2.4-5.3-5.3-5.3h-325.8Z"/>
      <path class="st3" d="M493.9,380.1h-13.9c-.7,0-1.4-.7-1.4-1.4s.7-1.4,1.4-1.4h13.9c.7,0,1.4.7,1.4,1.4-.1.7-.7,1.4-1.4,1.4Z"/>
    </g>
    <path class="st14" d="M506.2,295.2c.7-.6,1.6-1,2.5-1.3,3.3-.8,13.4-3.3,16.8-4.1,4.1-.9,9.6-4.7,7.2-14.7-2.4-9.9-12.3-8.1-12.3-8.1,0,0-16.4,3.9-19.7,4.7-3.4.8-4.2-2.1-4.2-2.1,0,0-1-2.9,2.2-4.6,5.7-2.9,13-10.6,13-22.2s-10.5-22.8-25.1-22.8-25.7,12.2-24.3,25.8c1.4,13.7,11.7,18.7,13.4,19.4,1.6.7,2.3,2,1.8,4.5-.3,1.3-1.3,1.8-2.3,2-.9.2-1.8.2-2.7-.1-2.1-.5-8.1-2-17.4-4.2-11.7-2.8-13.4,6.3-13.4,6.3l-1,4c-1.4,6.1,3.2,9.8,5.3,11.1.6.4,1.2.6,1.8.8,3.1.8,13.9,3.4,17,4.2,3.6,1,5.4,2.7,5.7,6.6.3,3.9-1.9,6.6-1.9,6.6-2.5,3.1-15.9,19.2-18.2,21.8-2.3,2.6-2.9,4.1-3.2,7.1-.3,3,1.2,4.8,2,6,.8,1.3,3.2,3.1,5.1,4.5s4.8,1.9,7.5,1.6c2.7-.4,5.1-2.3,6-3.3s13.9-17.1,14.8-18.2,1.7-2.5,4.3-2.7c2.1-.1,3.4,1.5,3.8,2.1.1.2.3.4.4.6,1.6,1.9,9.6,11.8,13.9,16.8,4.8,5.5,9.3,6.9,17.2.9,8-6,2.4-12.7,2.4-12.7,0,0-16.1-19-18.7-22.8-2.6-3.7-2.6-5.8-2.5-8.3.1-2.5,1.6-4.2,2.8-5.2Z"/>
  </g>
  <g>
    <g>
      <path class="st15" d="M736,203.7c2.2-5,4.1-11.7.4-16.5-5.2-6.8-17.4-4.4-23.7-.7-6.6,4-11.2,11-13.9,18-3,7.7-6,15.4-9,22.9-.3,1.1-4.1,10.4-5.3,13.4-.2.6,0,1.3.4,1.8,2.5,2.5,12.1,10.3,30.3,10.3,6.5-12.8,14.9-35.8,20.8-49.2h0Z"/>
      <path class="st2" d="M736,203.7c2.2-5,4.1-11.7.4-16.5-5.2-6.8-17.4-4.4-23.7-.7-6.6,4-11.2,11-13.9,18-3,7.7-6,15.4-9,22.9-.3,1.1-4.1,10.4-5.3,13.4-.2.6,0,1.3.4,1.8,2.5,2.5,12.1,10.3,30.3,10.3,6.5-12.8,14.9-35.8,20.8-49.2h0Z"/>
      <ellipse class="st1" cx="743.8" cy="768.7" rx="77.4" ry="17"/>
      <path class="st10" d="M745.9,483c5.3-24.1,12.2-44.9,22.9-101.4,3-16.2-7.4-31.7-23.5-35.1-17.5-3.7-34.2,8.4-36.3,26.1-3.3,28.9-3.4,58.7-7.2,93.1-2.5,22.9-4.3,43.1-4.6,56.6,0,4.6,0,8.4,0,11.2,3.2,35.5,18.9,185.3,19,191.3,0,6.2-1.2,10.9-5,12.8-.6.3.3.5-.2.8-4.5,2.5-9.1,5-13.7,7.2-2.4,1.2-4.6,2.4-7.1,3.4-1.5.8-4.5,1.3-5.1,2.9-.4.9,0,2.1.4,3,1.2,1.8,2.8,2.2,4.6,2.2,10.8,0,24.2-.8,34.9-1.3,2,0,6.8-.4,7.6-2.5.4-1.1.3-2.2,0-3.3-.3-2.5-.3-5.3-.3-7.9s-.9-9.2,1.2-25.1c2.1-15.9,13.1-78.9,13.8-109.3.3-10.5,0-19-.6-26.1-1.1-12.5-3.3-20.1-5.4-26.1-4.1-11-8-16.3-4.2-36.6.5-1.8,8.2-33.8,8.6-35.9h0Z"/>
      <path class="st10" d="M782.4,715.8s2.3,18.2,0,26.6c-2.2,8.4,23,2.8,21.8-5.1-1.2-7.9-3.3-10.5-2.2-18.8,1.2-8.3,0-8.7,0-8.7l-19.6,6Z"/>
      <path class="st6" d="M733.6,740.7c0,2.9,0,5.8.3,8.6,0,1.2.3,2.5-.3,3.7-1.1,2.4-6.2,2.8-8.4,2.9-11.4.6-26.3,1.3-38.3,1.5-2.2,0-3.8-.4-5.3-2.4-.6-.9-1.1-2.2-.6-3.3.8-1.8,4.1-2.4,5.8-3.2,2.5-1.2,5.3-2.5,7.9-3.8,5.1-2.5,10.1-5.3,15.1-8,.6-.4,1.3-.8,2-1.3,1.5-1.7,1.3-4.2,1.1-6.5,0-2-.4-3.8-.6-5.8,0-.4,0-.8,0-1.2.3-.6,1.2-.9,1.8-.8.6,0,1.2.8,1.8,1.3,1.3,1.5,2.4,3.4,2.9,5.4-.3-1.7-.4-3.9,1.1-4.9.6-.3,1.3-.4,2-.4,2.5,0,5.1,0,7.6.3.9,0,1.8.3,2.8.8,3.4,2,2.2,7.1,2,10.1-.6,2.5-.7,4.7-.7,7h0Z"/>
      <path class="st7" d="M681.6,758.5c-1.7,0-2.9-1.3-2.9-2.9s1.3-3,2.9-3c13.4,0,50.5-2.1,50.8-2.2,1.7,0,3,1.2,3.2,2.8,0,1.7-1.2,3-2.8,3.2-.4-.2-37.5,1.9-51.2,2.1h0Z"/>
      <path class="st6" d="M806.4,740.4c0,3.2.8,6.3,2.4,9.3,0,.3.4.8.4,1.1,0,2.5-3.3,4.3-5,5.5-2.5,1.7-5.3,3.4-8.4,4.2-6,1.5-13,.8-19.2,0-1.7,0-3.4-.4-5-1.2-1.5-.8-2.9-2.2-3-3.9-.4-4.2,5.4-6.6,8.2-8.7,2.9-2.2,6.6-5.1,8.3-8.6,1.5-3.2.4-7.5.8-10.8,0-.8,0-1.7.8-2.1.7-.4,1.8,0,1.7.6-.4-.6,0-1.5.4-2.1.6-.4,1.3-.8,2.1-.9,2.2-.6,4.6-.9,6.8,0,2.1.9,3.8,3.3,2.9,5.4.4-.9,1.1-2,2-2.5s2.1-.9,3-.3c1.1.8,1.2,2.1,1.2,3.4-.1,4.1-.6,7.9-.4,11.5h0Z"/>
      <g>
        <path class="st2" d="M674.7,760s-1.3,4,0,6.1c1.3,2,13,2.7,19.3.8,6.4-2,17.6-3.2,24.2-2.6,14.8.3,16.7-2.4,18.7-4.4,2-2.1,2-3.9.9-6.3l-63.1,6.4Z"/>
        <path class="st12" d="M724,738.3c-2.1.4-10.7,0-13.6-1.8-2.9,4.9-12.1,8.4-17.8,11.2-5.8,2.9-18.6,6-18.6,12.5,0,3.9,6.5,4.4,15.6,3.7,9.1-.8,24.6-3.9,33-4.1,8.5-.2,14.7-2.3,15.1-7.4.6-6.7-1.6-12.4-4.8-16.9-.9.4-2.9,1.8-8.9,2.8Z"/>
        <path class="st5" d="M715.4,738c-2-.3-3.9-.8-4.9-1.5-2.9,4.9-12.1,8.4-17.8,11.2-1.6.8-3.7,1.6-6,2.5.3.9,1.4,2,4.6,2.2,2.8,0,9.1-2.4,12.4-4.4,5.1-3,9.2-6.7,11.7-10Z"/>
        <path class="st5" d="M727.6,756.8c-.2,0-.4,0-.5-.3,0,0-1.2-2.8-1-8.3,0-5.5,2.2-9.8,2.3-10,0-.3.5-.4.7-.2.3,0,.4.5.2.7,0,0-2.2,4.3-2.2,9.5,0,5.2.9,7.8,1,7.9,0,.3,0,.6-.3.7,0,0-.1,0-.2,0Z"/>
      </g>
      <path class="st12" d="M710.5,736.5s1-3.1,3.9-3.1,1,4.6,1,4.6c0,0-3.6.2-4.9-1.5Z"/>
      <path class="st9" d="M745.8,483.6c5.3-24.1,12.2-44.9,22.9-101.4.8-3.7.8-7.2,0-10.7l-19.6,8.7c-16.4,11-21.3,149.7-16.4,162.6,4.9,13,13.7,38.1,14.6,61.2,0,1.2,0,2.4,0,3.7.3-10.3,0-18.5-.6-25.4-1.1-12.5-3.3-20.1-5.4-26.1-4.1-11-8-16.3-4.2-36.6.3-1.9,8.1-33.9,8.5-36h0Z"/>
      <g>
        <path class="st2" d="M792.4,758.8s8.9-17.6,13.1-8.4c2.3,5.2.5,21.9-7.2,28.4-7,6-22.5,5.5-26,2.9-4.9-3.8-3.8-10.4-2-15.6l22.1-7.3Z"/>
        <path class="st12" d="M791.2,742.4c-9.7,1.4-7.5-7.7-8.1-3.5-.8,5.9-6,12-10.8,21.4-5.1,9.9-.8,15.3,3.2,16.1,6.5,1.4,13.3,2,21.4-2.3,6.1-3.3,8-7.1,9-12.5,1.2-6.5,1.1-13.9,0-20.4-1.5-8-2.5-9.5-2.5-9.5,0,0-4.1,9.5-12.1,10.7Z"/>
        <path class="st12" d="M784.7,745.9s.5-2,.7-5.7c0-.9.3-1.8.8-2.5,1.7-2.4,5.1-2.5,7.2-1.2,2.6,1.7,1.5,9.6,1.5,9.6l-10.2-.2Z"/>
        <path class="st5" d="M785.3,741.5c0,5.3-5.8,13.5-5.3,15.2.4,1.9,8,3.7,12.1-.3,3.4-3.4,3.3-12.6,3.2-15.3-1.3.6-2.7,1.1-4.2,1.3-2.6.3-4.4-.1-5.8-.9Z"/>
      </g>
      <path class="st3" d="M777.5,405.6c4.9-19.2,8.6-38.7,10.3-58.5h-76.9c-1.3,5.5-2.4,11.3-3.3,17-4.9,29.3-6.8,52.3-9.3,81.8-2.1,23.5-2.5,53.7-2.1,77.2.4,29.2,3,58.2,6,87.2.9,8.3,10.4,95,10.8,100,.4,5,20.5,7.6,27.2,1.6,1.5-9.6,8.4-69.5,10.6-84.2,3.9-25.9,3-51.6-5.5-76.7-1.7-5-3.8-10-4.5-15.3-.9-7,.6-13.8,2.2-20.7,8.2-37,25.1-72.4,34.5-109.4h0Z"/>
      <path class="st11" d="M778.5,406c1.7-7.9.3-13.4-5.8-19-5-4.5-11.7-7.1-18.5-6.3-10.4,1.3-19.3,10.5-20,21.1-.4,5.8,1.2,11.3,1.5,17,0,3.8-.3,7.5-1.5,11.3-1.3,4.3-3.7,8.7-3.8,13.3-.3,8,5.5,14.6,8.4,22,4.2,10.7.4,22.8-2.8,33.3-3.3,10.8-7.4,21.6-9.1,32.9-2.2,15.9,3.8,30.1,8.7,45.1,5.1,15.3,10.3,30.3,12.1,46.3.6,5.9.9,11.6.9,17.5.6-4.2,1.2-8.4,1.8-12.5,3.9-25.9,3-51.6-5.5-76.7-1.7-5-3.8-10-4.5-15.3-.9-7,.6-13.8,2.2-20.7,8.2-35.8,23.5-69.1,34.3-103.8.7-2.1,1.3-3.7,1.6-5.5h0Z"/>
      <path class="st3" d="M801.8,524.9c1.5-32.9,4.9-65.4,6.2-98.3.9-19.9,1.8-40,0-59.9-.4-4.9-.9-12.1-2-19.5h-60.3c-.9,12-1.3,23.9-1.2,36,0,13.3,1.8,26.6,1.8,39.6,0,27.9,2.1,56.3,5.1,84.1,5.4,51.4,28.1,197,28.5,211.3,17.8,10.3,26.8-4.3,26.8-4.3-2-18.5,3.3-52.7,3.8-78.4.4-21.1,1.3-41-2-62.2-2.4-16-7.2-32.3-6.6-48.4h0Z"/>
      <path class="st11" d="M801.8,524.9c1.5-32.9,4.9-65.4,6.2-98.3.9-19.9,1.8-40,0-59.9-.6-5.9-.4-13.1-1.7-19.5h-95c-.4,2.1-1.1,4.3-1.5,6.5,1.1.8,2.1,1.3,3.3,1.8,11,5,23.4,5,35.1,7.5s23,7.6,32.7,14.9c1.8,1.3,3.4,2.8,5.1,4.2,8,7.2,13.4,15.9,14.9,27.2,1.8,13.6.4,27.5-1.5,41-2,13.6-5.5,26.8-7.2,40.5-2.5,22,.6,44.1,5.5,65.4,4.2,18.7,13.3,39.6,13.1,59.2,0-14.1,0-28-2.2-42.5-2.5-15.6-7.3-31.9-6.7-48h0Z"/>
      <path class="st9" d="M800.9,270.1c0-9.2.3-18.3,1.1-27.5l-17-43.5c-11.2,18,7.1,64.2,6.3,92.2-1.3,46.2,8,47.9,13.6,52-3.6-20.2-3.7-49.5-4-73.2h0Z"/>
      <path class="st15" d="M803.8,270.1c0-9.3.3-18.7,1.1-28,.9-11.4,7-23.2,5.8-34.7-1.2-10.8-1.7-16.6-12.5-21.5s-30.3-10.6-41.2-9.8c-16.6,1.1-40.8,4-42.8,14.8-2.1,7.6-3,24.9-2.4,32.9,2.9,36.8,0,73.7-3.4,110.1-.9,10.8-7.4,43.1-5.8,43.5,11.7,3,40.8,6.8,52.9,6.3,36.2-1.1,53.8-9.1,58.7-10.3-5.4-19.8-10.4-76-10.4-103.3h0Z"/>
      <path class="st2" d="M803.8,270.1c0-9.3.3-18.7,1.1-28v-.4c.6-6,3.7-12.1,6.2-17.9,2.4-7.9-8.7-23.9-17.9-27-11.6-3.8-12.1,1.1-14.2,11.5-3.9,19.3,2.2,47.5.3,66.6-.9,9.1-14.4,25.4-2,33.7,14.5,9.9,23.9,13.1,27.6,37.8,1.7,11,3.3,26.4,6.2,28.1,2.2-.3,3.2-.9,3.2-.9,0,0-10.5-77.7-10.5-103.5h0Z"/>
      <path class="st10" d="M801.5,309.5c-7.1-4-7.5-13.1-8.5-20.3,0-1-.2-1.8-.3-2.6-1.5-14.4-3.2-28.7-5.5-43.1-1-6-2.6-12.2-3.1-18.5-.5-4.7-.2-10.4,4-13.2,4.2-2.9,9.3-4.6,14.2-.9,9.7,7.6,11.4,18.5,13,31.7,1.7,13.5,2.6,31.2,2.5,46.2,0,4.8.6,12.9-2.3,17.4-3,4.6-9.8,6.1-14,3.3Z"/>
      <path class="st8" d="M801.3,258.7c-4.6-.5-7.8,2-10.9,5.4-.4-3.4-.9-6.7-1.3-10.1-1.5-11.6-4.3-23-4.6-34.7-.2-.8-.3-1.5,0-2,.8-2.1,1.5-4.5,3.5-5.7,4.3-2.6,9.3-4.4,14.3-.8,9.7,7.3,11.2,19.3,13,31.7.8,5.9,1.5,13.2,1.9,21.3.5,6.6.5,19,.2,26.5-1.6-13.1-1.2-29.7-16.1-31.6Z"/>
      <path class="st10" d="M782.9,306.1c-21.6-8-33.4-13.3-53-22-1.2-.4-2.3-.8-3.3-1.5-1.5-1-2.4-2.9-2.3-4.6,0-1.9-7.7-9.4-6-10.2,1.3-.4,12.1,5.2,13.3,5.4,16.6,3.3,22.9,4.5,43.6,6.9,8.4,1.1,20.5,2,26.6,4.1,8.7,3,12.3,5.4,15.1,14.4,1.4,5.1-2.3,10.2-6.2,12.1-.7.2-1.4.6-2.3.7-6.3,1.1-19.3-2.8-25.5-5.3Z"/>
      <path class="st15" d="M814.5,203.5c-.6-3.5-4.7-13.8-16-17-11-2.5-21.8,8.5-19.6,25.2,1.8,14.1,2.4,20.9,4.6,35.6.2.6.7,1.4,1.3,1.5,9.8,1.7,20.5,1.1,31.3-2.1.9-.3,2.2-.7,3.1-1,.8-.3,1.3-1,1.1-1.8-2.1-18.5-3.8-29.8-5.8-40.4Z"/>
      <path class="st2" d="M814.5,203.5c-.3-1.4-1.1-4-2.8-6.8,2.1,17.1,0,34.7,3.7,50.1.3-.1.5-.1.8-.2.9-.3,2.2-.7,3.1-1,.8-.3,1.3-1,1.1-1.8-2.2-18.4-3.9-29.7-5.9-40.3Z"/>
      <path class="st10" d="M731.3,89.2c13.7-5.8,32-1.1,38.1,17.8,2.1,6.6,2.2,13.6,1.2,20.4-.8,5.1-2.8,10.3-5,14.7-2.2,4.9-3.2,8.9-2.9,14.5.4,5.9,1.1,12.3,3,18,.7,2.2.5,4.7-.8,6.6-6.5,10.1-18.7,19.6-23.6,23.5-1.1.9-2.8.3-3.1-1.1-1.6-6.4-2-16.7-1.1-25.2,1.5-2.2,2.1-7.1,1.7-11.3-.4-4.3-.8-7.6-3.2-8.6-1.3-.6-3.2.3-4.6.3-3.4.1-7.5,0-10.4-2.2-3-2.4-2.5-14.6-3.7-18.3-.9-3.2-3.7-1.1-5.8-2.4-3-1.7.8-4.6,2.8-13,4.1-15.5-3.2-25.3,17.4-33.7h0Z"/>
      <path class="st8" d="M741.6,154.1c-2.4,1.8-5,3.4-10.4,4.5,1.5,0,3.2-.9,4.6-.3,2.4.9,2.8,4.2,3.2,8.6.3,2.8,0,5.5-.4,8,2.2-2.1,5.1-6.6,5.8-10.8.6-6.5-.3-12.1-2.8-10h0Z"/>
    </g>
    <g>
      <path class="st3" d="M732.2,291.7l-33.5-70.6c-.4-.8-1.1-1.3-2-1.3h-106.3c-1.7,0-2.8,1.7-2,3.2l33.5,70.6c.4.7,1.1,1.3,2,1.3h106.3c1.5,0,2.7-1.6,2-3.2Z"/>
      <path class="st11" d="M735,291.7l-33.5-70.6c-.4-.8-1.1-1.3-2-1.3h-2.7c-1.7,0-2.8,1.7-2,3.2l33.5,70.6c.4.7,1.1,1.3,2,1.3h2.7c1.6,0,2.7-1.6,2-3.2ZM648.3,260.5c-1.3-2.8-1.3-5.4,0-7.3,1.1-1.9,3-2.8,5.6-2.8,5.2,0,11.2,4.1,13.5,9.3,1.3,2.8,1.3,5.4,0,7.3-1.1,1.9-3,2.8-5.6,2.8-5.2,0-11.2-4-13.5-9.3ZM653.8,252.8c-1.7,0-3.1.4-3.9,1.7s-.8,3.1.2,5.3c2,4.4,7.2,8,11.6,8s3.1-.4,3.9-1.7c.8-1.2.8-3.1-.2-5.3-2.1-4.6-7.3-8-11.6-8Z"/>
      <path class="st11" d="M794.2,291.2v.3c0,1.8-1.4,3.3-3.3,3.3h-58.5c-1.8,0-3.3-1.4-3.3-3.3v-.3c0-1.8,1.4-3.3,3.3-3.3h58.5c2,0,3.5,1.5,3.3,3.3Z"/>
    </g>
    <path class="st10" d="M642.5,283.8c.3-1.2.9-2.4,1.4-3.5.3-1,.4-2,0-3-.6-1.1-2.2-.7-2.9.3-.8,1.3-.9,2-1.8,3.3-.6,1-1.4,2.1-1.7,3.1,0,.7,0,1.4,0,2.2.2,2.1.4,4.1.8,6.3.2,1.7,0,4.5,1.4,5.3,1,.4,2.3.4,3.2,1.2,1.5,1,2.1,2,4.2,1.7,1.1,0,2.2-.2,3.3.1,1,.3,1.8.8,2.7.9,1.5.2,2.9-1.1,4.3-1.4,1.2-.3,2.4-.3,3.5-1s2.1-1.1,3.3-1.8c1-.6,2.9-1.7,2.3-3-.6-1.3-2.3-1.9-3.7-2-.9-.1-1.5.4-2.2,1-.3.3-.6,1-1.1.8-.6-.2-1.1-2.1-1.3-2.7-.4-1-.7-1.9-1.1-2.8-.3-.6-.7-1.2-.6-1.8,0-.4,0-.9.2-1.3.4-1,.8-2,.8-3s-.4-2-1.3-2.5c-.2-.1-.3-.2-.4-.1-.4,0-.7.4-.8.8-.3,1-.8,2-1.1,3-.2.7-.6,1.3-.7,2,0,.8,0,1.5,0,2.3,0,2.4.3,3.4,0,5.9-.6-1.7-1.2-1.9-1.7-3.4-.4-1.3-.9-2.7-.8-4.1,0-.9.4-1.7.8-2.4.8-1.7,1.3-3.4.9-5.3,0-.2-.2-.6-.3-.8-.3-.3-1-.8-1.5-.6-.6.2-.6,1-1,1.2,0-.4-.2-1-.6-1.3-.2-.2-.3-.4-.8-.6-.2-.1-.7-.1-.8.2,0,0-.2.3-.2.4-1.9,5-4.6,10.4-3.5,16.3-.2-1.7-.6-3.1-.9-4.6.2-2-.5-3.7,0-5.3Z"/>
    <path class="st16" d="M761.3,81.6c-8-3.7-17.3-4.2-25.9-2.6-4.8.9-9.6,2.5-14.3,2-1,0-1.7.9-1.3,1.8l.9,2c.4.8-.2,1.8-1.1,1.8-3.8.2-7.7-.8-10.9-2.8-1-.6-2.2.2-2,1.3.5,2.7,1.7,5.2,3.4,7.3.7.9,0,2.2-1.2,2.1-1.3,0-2.7-.5-3.9-1.1-1-.5-2.2.5-1.8,1.6,1.7,5,6.2,9.1,11.4,10.3,14.7,3.5,20.4-10.7,29.6-3.6,1.6,1.2,1.7,3.8.6,5.5-1.1,2-2.9,2.8-4.1,4.2-1.7,2.1-.4,4.5.4,6.6,1.5,3.7.9,6.8.8,10.5,0,2.1,2,2.1,3.7,2,1.3-.1,2-1.7,2.2-2.9.4-2.9.4-6.6,3-8.4,1.8-1.3,4.3-1.5,6.2-.3,1.3.9,2.2,2.2,2.7,3.7q0,0,0,.2c.7,2.7,0,5.7-.9,8.2-1.1,2.5-3.9,5.3-3,8.3.2.8.8,1.4,1.4,1.8,1,.6,1.8,1.4,1.7,2.7v.3c0,1.8,1.3,3.2,3.3,3,.8-.1,1.5-.4,2.1-1,.5-.4,1.2-.4,1.8.1q0,.1.2.1c.9.8,2.2.8,3.3.1,1.1-.6,1.7-1.7,2-2.9.4-1.1.6-2.2.9-3.4,1.4-5.5,5-9,6.7-22.4,1.8-13.3-1.4-28.4-18-36.1Z"/>
    <path class="st16" d="M733.4,143.5c2.4.7-5,3-9.6,1.8-1.9-.5-3.6-1.6-5.1-3-.3.8-.7,1.6-1,2.4,0-.1-.4-.8-.5-.9-.2-.4-.3-.7-.4-1.1-.2-.7-.2-1.4,0-2.1.3-.9.7-1.7,1.5-2.1,2.1-1,4.8,0,6.7,1,1.4.7,3.2,2.5,8.4,4Z"/>
    <path class="st3" d="M752.2,377.3c-24.8,0-46-6-46.3-6l.2-.8c.3.1,25.7,7.2,53.4,5.8,33.8-1.7,49.1-10.9,49.2-11l.5.7c-.2.1-15.6,9.4-49.7,11.1-2.4.2-4.9.2-7.3.2Z"/>
    <path class="st3" d="M752.2,371.5c-24.8,0-46-6-46.3-6l.2-.8c.3.1,25.7,7.2,53.4,5.8,33.8-1.7,49.1-10.9,49.2-11l.5.7c-.2.1-15.6,9.4-49.7,11.1-2.4.2-4.9.2-7.3.2Z"/>
  </g>
  <g>
    <path class="st1" d="M114.8,737.1c0-9.5,63-17.1,140.5-17.1s140.5,7.8,140.5,17.1-19.3,9.9-49.8,13.1c-5.2.5-8.8,4.9-6.5,8.7.3.4.4.8.4,1.4,0,6.4-27.6,11.6-61.5,11.6s-61.5-5.2-61.5-11.6h0c0-3.7-2.9-6.8-7.2-6.9-55.2-2.3-94.9-8.7-94.9-16.2h0Z"/>
    <path class="st15" d="M165.2,725.9l.4-1.6c0-.5.4-1.1.8-1.6,3.8-5.8,9.9-9.9,16.6-11.7,0,0,13.9-3.7,29-7.5,21.2-5.4,36-24.5,36-46.4v-30.7l5.6-3.1c1.1-.7,2.4.1,2.4,1.5v32.4c0,22,15,41.1,36.3,46.5,14.4,3.7,27.7,6.9,27.7,6.9,8.3,2,15.1,7.9,18.8,15.4.4,1,.8,1.8,1.2,2.7,1,2.6-.7,5.4-3.4,6-43.8,8.4-117.8,8.8-164.3.4-4.9-1.1-7.8-5-7.2-9.1h0Z"/>
    <path class="st14" d="M338.7,725.7c.4,1,.8,1.8,1.2,2.7,1,2.6-.7,5.4-3.4,6-43.8,8.4-117.8,8.8-164.2.4-4.6-.8-7.6-4.8-7.1-8.8l.4-1.6c2.9,2,6.1,3.1,9,3.1,55.6,9.1,111.4,16.3,164-1.8h0Z"/>
    <path class="st15" d="M106.1,427.6c11-87.7,109-116.3,168.7-68.6,43.9,35.1,41.1,105.8,26.3,135.3-14.4,28.8-36.6,51.7-7.1,78.9,7.8,7.2,8.2-.4,17,5.2,101.7,63.4-142.4,23.3-171.1-9.8-24.9-29-42.6-71.8-33.7-141.1h0Z"/>
    <path class="st15" d="M389.8,562.4c25.3-38.8-260.6-36.3-236.1-3.4,24.5,32.9,80.7,47.6,150.2,43.1"/>
    <path class="st14" d="M107.3,419.6c-2.6,49.8,7.8,111.7,55.9,142.4,57.9,36.9,232.7,18.2,227.4-6.9,6.1,12.7-5.7,33.5-14.7,42-37.1,34.7-161.3,45.7-220.8-2.7-36.6-29.7-57.1-64.9-56.4-111.7.4-32.9,3.8-44.3,8.6-63.1h0Z"/>
    <path class="st0" d="M270.8,583.4c-41.9,0-84.2-5.8-108-20.9-19.9-12.7-34.8-31.6-44.5-56.3-7.9-20.4-11.8-44.1-12.1-70.5h1.4c.5,74.9,30.7,109.6,55.9,125.8,22.6,14.3,66,21.8,119,20.5,46.1-1.1,88.3-9,102.7-18.8,3.8-2.6,5.4-5.3,4.9-7.9l1.4-.3c.7,3.1-1.2,6.3-5.6,9.2-15.8,10.7-65.2,19-115.1,19h0Z"/>
    <path class="st1" d="M158.4,538c-2.3,5.6-5.2,12.1-.4,16.3,4.1,3.7,9,6.1,13.9,8.3,7.9,3.4,16.1,6.1,24.3,8.4,23.5,6.7,47.7,11,72,11s30.7-1.8,45.7-5.6c7.3-1.9,15-4.1,21.8-7.5,3.9-2,10.5-7.2,10.3-11.8,0-2.2-1.5-4.1-2.9-5.6-9.9-10.6-23.5-12.4-36.5-16.9-10.1-3.4-22.3-8.4-28.6-17.7-6.9-10.1-11.8-20.8-16.5-32.1-1.9-4.8-2.6-9.7-4.4-14.3-2.3-6.3-4.1-12.7-5.7-19.2-.4-1.9-.8-3.9-1-5.8-2.7-20.8-.4-42.2-3-63-1.1-8.8-2.3-19.7-7.9-26.9-5.7-7.3-16.7-11.7-25.6-12.8-2.9-.4-5.8-.4-8.7.4-10.6,3.3-13.7,11.8-15,22.3-3.9,32.4-7.9,65-13.6,97.1-3,16.2-6.4,32.2-10.5,48.4-2,7.9-4.4,15.5-6.7,23.3-.1.7-.7,2-1.4,3.5h0Z"/>
    <path class="st4" d="M304.1,443c-.8.3-1.6.3-2.3.3-4.1-.1-6.9-5.7-7.8-9.7-1.5-9.2-1.5-10.7,4.5-17.3,5.6-6,9.5-5.6,15.8-10.5,12.5-10.1,22.3-19.9,33.6-30.2,1-.8,2-1.6,3.4-1.8,1.8-.3,3.5.7,4.5,2.2s1,3.4.3,5c-.4,1.1-1.2,2-1.9,2.9-12.5,16.2-17.3,29.1-30.9,44.6-4.1,4.4-13.2,12.8-19.2,14.4h0Z"/>
    <path class="st4" d="M299.2,441.6c-3.7-3-7.3-9.4-9.7-13.3-6.8-13.1-15.8-28.4-20.8-37.1-5.3-9.2-12.4-21.1-9-29.8,1.8-4.5,6.3-7.8,10.9-7.8s8.3,3.8,10.7,7.6c3.3,5,6,10.3,8.8,15.6,6.7,12.2,12.9,24.8,18.2,37.5.3.8.7,1.5,1,2.3,2.2,5.4,6.4,15.5,2.9,20.9-2,3.3-9.2,6.9-13.1,3.9h0Z"/>
    <path class="st9" d="M259.8,361.3c1.8-4.5,6.3-7.8,10.9-7.8s8.3,3.8,10.7,7.6c3.3,5,6,10.3,8.8,15.6,3.7,6.8,7.3,13.6,10.6,20.7-6.5.8-10.3,8.2-11.7,15.4-1,4.8-1,9.5-.3,14.1-6.8-12.8-15.4-27.6-20.1-35.9-5.2-9-12.4-21.1-9-29.8h0Z"/>
    <path class="st12" d="M303.3,389.4c0,.1.3.4.4.5-3.8,5-9.1,8.4-14.6,11.3-4.4,2.3-8.8,5.4-13.5,7.1-1,.3-2.2.7-3,.1-.8-.5-1.1-1.6-1.2-2.7-1.4-8.4-3.9-16.6-7.3-24.5-3.3-7.6-9.9-13.3-15.2-19.7-4.2-5.2-8.3-11.2-7.2-17.7.5-3.3,1.6-5.6,5.2-6.4,2-.4,4.2,0,6.3,0,7.1,1.1,13.7,2.3,19.9,6.3,5.2,3.5,9.7,8.8,12.8,15.2,5.6,10.7,10.3,20.8,17.5,30.3h0Z"/>
    <path class="st9" d="M248.6,480c-22.3,1.5-46.4,6.1-58.6,26.4-7.9,12.8,60.7,66.7,75.8,67.1,11.2.3,23.8,2.7,33.7-3,9.1-5.2,16.5-13.2,20.7-22.9,3.8-8.2,1-72.6-71.5-67.6h0Z"/>
    <path class="st13" d="M250,572.5c2.7,3,5.8,6,9.2,7.5,2.2,1,4.4,1.6,6.5,2.6,1.5.7,5,3.4,6.5,3.4-14.6.3-31.7-7.5-45.6-12.2-19.3-6.8-33.1-21.6-38.4-36.9-6-17.4-5.6-30.9,10.1-53.5,1.4-2,7.6-13.5,9.8-14.7,1.1-.7-9.5,18.9-8.4,18.4,12.7-6.9,25.6-10.7,40.1-12.8,14.8-2,30.2-1.2,44.9,2.6,13.2,3.5,14.4,8.6,23.7,18.6,12.4,13.7,15.2,43,13.7,55.8-1.2,10.6-6,15.2-15.8,19.7-1.5.7-3.1,1.4-4.9,1.1-7.1-1.1,1.9-11.3,3.1-14.3,2.7-6.1,5-12.4,6.3-18.9,1.6-7.9,2-17.5.8-25.6-1.2-8.4-5.2-20.5-14.3-23.1-3.1-1-6.5-.3-9.5.8-10.5,3.7-18.5,12.1-25.6,20.7-6.8,8.2-13.3,16.6-18.6,25.8-3.7,6.3-5.4,13.3-3.1,20.5,1.4,4.5,4.1,8.4,6.9,11.8,4.6,5.6,9.7,9.4,16.5,11.7,1.4.4,2.7,1,3.8,1.6,1.1.8,2,2,2.2,3.4"/>
    <path class="st2" d="M249.7,572.1c-.8-.8-1.5-1.6-2.2-2.4-2.4-3.1-4.8-6.4-6.3-9.9-11.2-3.1-29.9-16.2-34.5-23-11.3-16.9-11.2-37,12.1-44.2l-7.9-11c-3.8,1.5-7.6,3.3-11.2,5.3-.5.3,1.4-3.5,3.5-7.8l-2.2-.3c-1.2,2-2.2,3.8-2.7,4.5-15.6,22.6-16.1,36-10.1,53.5,5.2,15.2,18.9,30.1,38.4,36.9,6.7,2.3,14.1,5.3,21.8,7.9l1.2-9.4h0Z"/>
    <path d="M250.4,572.9l10.3,7.3c-4.1-1.9-7.3-4.4-10.3-7.3Z"/>
    <path class="st11" d="M233.8,334.9c-6.9,0-12.5,1.2-19.2,3-7.8,2-18.9,8-22.6,15-3,5.6.8,9,2.4,15.1,1.4,5.3,3.7,10.2,4.1,15.6.4,6.5,2,21.1,2,27.6,0,13.1,2.4,27.6,1.4,40.7-1.4,17.1-12,41.1-13.1,40.7,8.4,2.9,17.4,3.7,26.3,4.1,11.7.7,23.7,0,35.1-1.9,9.4-1.5,18.8-3.1,27.9-6.1,6.5-2.2,12.5-5.6,16.6-11-14.3-20.7-26.5-29-22.7-54.4.8-6,5.3-7.3,9.4-11.3,5-5,7.2-11,5.6-18.1-2-9.4-5.7-21.6-6.8-31.1-.7-6.3-2.6-10.9-7.2-15.4-9-8.4-20.1-10.9-31.8-11.8-2.6-.4-5-.5-7.3-.5h0Z"/>
    <path class="st2" d="M196.3,475.7c3.9.4,8.7-.5,12.4-1.8,3.7-1.2,7.1-3.4,9.1-6.7,1.2-1.9,1.9-4.2,3.1-6.1,3.1-4.8,9.2-6.5,13.6-9.8,3.7-2.7,5.8-6.3,7.5-10.3,1.5-3.9.5-9,3.4-12.2,1-1.2,2.3-1.9,3.7-2.7,3.3-2,6.4-4.6,9-7.5.4-.5,1-1,1.1-1.6.4-1.4-.5-2.9-1.8-3.5-1.2-.7-2.7-.7-4.2-.7-7.6-.3-16.2-1.8-20-8.3-2.9-4.9-2-11-3.8-16.3-.8-2.4-2.3-4.8-3.8-6.8-3.5-4.8-8.3-9-13.9-10.2-3.7-.8-7.9,0-10.9,1.9-4.8,3.3-2.2,6-1.9,10.6.4,6.5,2,21.1,2,27.6,0,13.1,2.4,27.6,1.4,40.7-1.1,8.3-3.7,15.9-6,23.8h0Z"/>
    <path class="st4" d="M237.5,293.8c1.4,0,3.1,0,5.4.8,4.8,1.5,17.3,4.8,15.5,11.2-.4,1.4-1.6,2.7-2,4.1-.7,1.8-1.1,3.7-1.4,5.4-1.1,6.7-3.1,14.4-.3,21.1,1.1,2.6,2.3,5.8,1.5,8.6-1,2.7-3.4,5-6.1,6.4-4.4,2.2-9.9,2.3-14.6,1-5.2-1.5-10.6-6.3-10.7-11.3,0-2.4,1-3,5.7-12.7,2.9-6.1,3.5-13.3,3.4-19.6,0-6.4-1.8-14.1,3.5-15h0Z"/>
    <path class="st9" d="M254.9,315.3c-1,6.3-2.9,13.3-.8,19.7-2.2.5-6.9-3.4-8.7-5.4-6.9-7.8-7.3-15.9-9.7-24.2.3-3.4.8-7.8,3.8-9.1,3.3-1.5,10.1.3,13.1,1.8,2.9,1.5,6.5,4.9,5.7,7.9-.4,1.4-1.6,2.7-2,4.1-.7,1.6-1.1,3.5-1.4,5.3h0Z"/>
    <path class="st16" d="M292.7,285c0,4.9-1.6,9.7-5,13.2-2,2.2-3.9,4.4-5.7,6.9-1.2,1.9-3,3.7-5.3,3.4-11.7-1.1-9.4-24.2-8.2-31.3.7-3.9,1.2-7.9,5.8-9.1,3-.8,6.3,0,8.8,1.6,4.8,2.9,8.3,7.9,9.1,13.3.3.5.4,1.2.4,1.9h0Z"/>
    <path class="st4" d="M237.7,308.9c-.7-1.1-1.2-2.2-1.8-3.4-4.2-8.6-7.3-18.1-2.4-26.8,3.5-6.3,9.7-9.4,16.5-11.6,7.3-2.3,10.5-3.7,18.2-2.7,6.8.8,12.5,5.7,15.6,11.6,3.9,7.2,2.9,15.1.8,22.6-1.5,5.3-3.1,10.3-5.7,15.1s-6.1,9.1-10.7,11.7c-4.1,2.4-9.5,3.4-13.7,1-6.8-4.1-12.7-10.5-16.7-17.4h0Z"/>
    <path class="st16" d="M287.3,264.7c1.8,3,2.4,6.9,1,9.9-3.9,8.4-16.7,6-24.2,7.2-3.4.5-6.5,1.9-9.7,3.5-2.2,1.1-8.7,5.3-9.5,1.2-.7-3.5-1.4-7.3-5.7-7.3s-3.3,1.6-3.9,3.3-.7,3.5-.5,5.3c.3,2.9,2.4,14,0,15.5-.8.5-1.9.3-2.7,0-.8-.5-1.4-1.2-2-2-4.4-6.1-6.3-13.3-5.8-20.7.5-8.6,4.5-16.6,10.9-22,7.3-6.1,17-8.6,26.5-7.2,8.6,1.2,20.4,5.2,25.4,12.9.4.4.5.4.5.5h-.1Z"/>
    <path class="st4" d="M286.7,531.3c6.1-7.5,13.7-15,23.9-12.2,20.3,5.4,14.6,25.8,12.2,42.7-4.4,31.6-41.9,141.9-42.4,152.1-.3,5.3,2.9,9.7,5.4,14,1.5,2.4,3.3,5.4,3.7,8.3.5,2.9-.4,6.1-3,7.5-1.2.7-2.6.8-4.1.8-3.5.1-7.2-.4-10.2-2-1.6-1-3-2.2-4.2-3.5-.7-.7-1.2-1.5-1.8-2.3-3-4.6-4.4-10.9-3.9-16.3,0-2.4,1.1-4.9,1.8-7.5.8-3.3,1.4-6.5,1.5-9.7,1.6-23.5-2.6-85.7-.3-104.7,2.4-19.7,4.9-39.2,14.3-56.7,2.3-3.5,4.5-7.2,7.1-10.3h0Z"/>
    <path class="st16" d="M262.6,719.1c-.7,2.2-.8,3.5-.7,8.3,0,3.3,1.4,11.8,3.8,14.8,2,2.4,5,4.2,8,5.2,5,1.6,11.7,2.3,15.9.5,2.6-1.2,3.9-4.8,3.7-7.8-.3-2.4-1.8-4.6-3.1-6.8-2.2-3.3-4.5-6.5-6.8-9.7,1.6,2.9,3,6.3,2.9,9.2,0,3.1-2,4.5-5.2,4.6-4.9.3-11.8-1.9-15.1-6.5-1.4-1.9-1.9-4.1-2.3-6.1-.5-2.2-.7-4.4-1-6.5,0,.4-.1.5-.1.7h0Z"/>
    <path class="st9" d="M310.7,517.3c-10.1-2.7-17.8,4.8-23.9,12.2-2.4,3.1-4.8,6.8-6.7,10.1-9.5,17.5-11.8,37-14.3,56.7-1,7.5-.8,21.2-.5,36.7,5.4-35.1,12.1-49.2,30.9-66.8,19.9-18.5,26.8-12.9,26.8-6.5,2.3-16.6,8-37-12.2-42.4h0Z"/>
    <path class="st4" d="M332,502.7c1.4-14.3-12.4-29.9-32.2-20.3-15.5,7.6-23.7,18.1-32.8,31.8-19.2,29.1-49.1,90.3-62.3,106.8-5,6.3-9.5,10.3-15.6,15.5-2.7,2.2-5.8,3.7-9,5.2-3.7,1.6-7.2,2.9-8,7.5-.8,4.9,3.7,7.2,8.2,6.8,4.8-.4,8.8-3.5,13.3-4.5,5-1,9.9-2.9,14.7-5,3.7-1.6,7.9-4.4,7.9-8.4s-.3-2.3,0-3.5c.3-1.1,1-2,1.6-2.9,3.7-4.8,7.5-9.4,11.8-13.3,20.9-19.2,21.6-17,42.3-36.5,54.7-52,58.9-65.7,60.3-79.2h-.1Z"/>
    <path class="st16" d="M168.5,646c3.1-2.2,6.8-3.7,9.4-4.5,1.4-.5,2.9-1,4.2-1.5,1.1-.4,2.6-.5,3.4-1.1-2,1.2-5.7,2.9-7.2,4.8-2.3,3,1.9,5.6,4.6,6,10.2,1.9,20.4-2,28.6-8,2-1.5,3.8-4.2,4.5-6.8,1.1,4.4.7,9.7-3,10.6-1.6.4-3.1.8-4.9,1.4-5.7,1.8-14.8,7.1-20.3,9.4-10.6,4.5-19.6,3-22.3.1-3.9-3.9-.7-7.8,3-10.3h0Z"/>
    <path class="st12" d="M314.1,328.5l-25.2,71.1c-.3.7,0,1.5.3,2.2,0,.3,2.3,3.4,2.4,3.5.4.4,1.1.7,1.6.7l44.2-4.9c.7,0,1.2-.4,1.4-1.1l29.9-68.8c.3-.7,0-1.5,0-2,0,0-2.3-3.1-2.4-3.3-.5-.7-1.4-1.2-2.2-1.1l-46.4.4c-1.1.1-3,1-3.5,3.3h-.1Z"/>
    <path class="st4" d="M342.9,393c-1.6,0-3.3-.5-4.6-1.5-1.8-1.4-2.9-3.4-3-5.6,0-1.6.4-3.1.4-4.6s0-2.7.8-4.2c1-2.4,1.4-4.1,4.5-3.9,1.4,0,2.7.4,4.1.5,1.8,0,3.4-.4,4.9-1.2,2.9-1.9,4.8-5.6,8.2-6.1,1.6-.3,2.2,1.1,2.4,2.4,1.2,5.3-1.4,12.5-4.6,16.5-2.2,2.6-5.2,4.2-8.2,5.8-1.1.5-2.2,1.1-3.3,1.5-.5.4-1.1.4-1.6.4h0Z"/>
    <path class="st3" d="M316.2,332l-24.9,70.7c-.5,1.6,1,3.8,2.6,3.7l46.1-2c.7,0,1.2-.4,1.4-1.1l27.9-71.7c.7-1.6-1-3.9-2.7-3.7l-45.8.5c-3.1.3-3.5,1.5-4.5,3.5h0Z"/>
    <path class="st4" d="M354.2,364c1.4,1,2.6,1.9,3.9,2.9-2.4-1.1-4.6-2.4-7.1-3-3.3-.7-6.8-.8-9.9-1.1h-.5c-.3,0-.5.4-.5.7s0,.7.3,1c.3.4.5.8,1,1.1-.5.3-1.2,0-1.6.4s-.4,1.2,0,1.6c0,.3.4.4.5.7,1.6,1.2,3.5,1.5,5.4,1.5s1.8,0,2.6.4c1.4.5,2.4,1.6,3.5,2.6,1.4,1.1,2.6,2.3,3.9,3.4-2.4-.7-4.8-1.9-6.9-3-.7-.4-1.5-.8-2.3-1-.7,0-1.5-.3-2.2-.3-1.1,0-2.3,0-3.4-.3h-.3c-.3,0-.4.3-.4.4-.4,1.1.8,2.3,1.8,2.4l4.1.8c.4,0,.7,0,1,.3.4,0,.7.5,1,.8,1.1,1.1,2.2,2.3,3.3,3.5.5.7,1,1.4.5,2.2-.3.5-1,.8-1.4,1.4-.5.7-.4,1.8,0,2.6.3.7.7,1.4,1.2,1.8,1,.7,1.8.1,2.6-.4l2.4-2c1.1-.7,1.5-1.8,2.3-2.9,1-1.2,2.7-1.9,3-3.4.3-1.1-.3-2.2,0-3.3,0-1.2,1.1-1.9,1.6-2.9,1-1.8-.5-3.1-1-4.9-.3-1.2.8-2.2.7-3.3,0-1.9-2.7-2.9-4.1-3.7-1.9-1.2-3.8-2.4-5.7-3.5-.7-.4-1.4-.8-2-1.1-1.1-.3-2.6,0-3.7,0s-2.4,0-3.5.3c-1,0-2.7,0-3,1.1,0,.5,0,1,.4,1.4.8,1.1,2.3,1.2,3.5,1.2s4.1,0,5.3.4c1,.3,2.4,1.8,4.1,3h-.4Z"/>
    <path class="st4" d="M200.9,451.2c-2.9-4.1-4.1-11.3-4.9-15.8-2.6-13.6-4.6-30.2-5.3-42.8-.7-12.5-1-22.9,6.8-31.3,3.9-4.4,9-3.5,13.2-1.5,4.4,2,5.4,7.2,5.8,11.4.4,5.8,0,11.7,0,17.5.3,13.5,1.1,26.9,2,40.5v2.4c.3,6.8,1.4,15.1-4.5,20-3.5,3.1-10.6,3.5-13.5-.5h.3Z"/>
    <path class="st4" d="M196.5,436.8c-1.6-6.9-3.4-18.2-4.1-24.3-1-7.5-1.5-14.3-1.8-20-.5-11.8-1-23,6.8-31.1,3.9-4.2,8.8-3.3,13.2-1.6,2.2.8,3.3,2.9,4.2,4.6.3.5.3,1.2.4,1.8,1.6,10.7,1,21.8,1.5,32.5,0,3.1.3,6.4.4,9.5-3.4-2.6-6.8-3.3-10.7-3.1-12.2,7.2-10.7,19.5-9.9,31.8h0Z"/>
    <path class="st4" d="M210.7,454.8c-.8.1-1.6.3-2.2.1-4.1-.4-9.1-3.4-9.5-8.3-.8-8.8,1.5-12.1,8.2-17.8,4.6-3.9,14.6-9.1,21.6-12.8,17.1-9.4,22.2-12.5,35.2-21.2,1.1-.7,2.6-1.1,3.8-1.1,1.8,0,3.4,1.1,4.2,2.7s.4,3.4-.4,4.9c-.5,1-1.5,1.8-2.3,2.6-13.7,14.4-22.3,23.3-38.1,37.7-4.9,4.2-14.8,12-20.5,13.2h0Z"/>
    <path class="st11" d="M208.8,345.9c15,6,13.2,55.6,13.2,55.6,0,0-18.4,4.1-33.2.7,0,0,.3-9.4,0-35.2-.5-16.5,10.6-24.6,20.1-21.1h-.1Z"/>
    <path class="st16" d="M201,398.5c-6.5,0-9.7-.7-9.9-.8-.4-.1-.5-.4-.5-.8s.4-.5.8-.5,9,2,29-.8c.4,0,.7.3.8.5,0,.4-.3.7-.5.8-8.3,1.2-14.8,1.6-19.6,1.6h0ZM201.4,393c-6.9,0-9.9-.8-10.2-1-.4-.1-.5-.5-.4-.8,0-.3.5-.5.8-.4,0,0,8.3,2.3,28.3-.7.4,0,.7.3.8.5,0,.4-.3.7-.5.8-8.2,1.2-14.3,1.5-18.8,1.5h0ZM200.7,387.2c-6.4,0-9.4-.7-9.7-.8-.4-.1-.5-.4-.5-.8s.4-.5.8-.5,8.7,2,28.2-.8c.4,0,.7.3.8.5,0,.4-.3.7-.5.8-8,1.4-14.4,1.6-19,1.6h0ZM200.7,381.9c-6.4,0-9.4-.7-9.7-.8-.4-.1-.5-.4-.5-.8s.4-.5.8-.5,8.7,2,28.2-.8c.4,0,.7.3.8.5,0,.4-.3.7-.5.8-8,1.2-14.4,1.6-19,1.6h0ZM199.9,375.8c-6,0-8.6-.7-8.7-.7-.4,0-.5-.5-.5-.8,0-.4.5-.5.8-.5s7.5,2,26.9-.8c.4,0,.7.3.8.5,0,.4-.3.7-.5.8-8.3,1.1-14.4,1.5-18.8,1.5h0ZM199.8,369.8c-6.1,0-8.6-.8-8.7-1-.4,0-.5-.5-.4-1,0-.4.5-.5,1-.4,0,0,6.8,2.3,26.1-1,.4,0,.7,0,.8.5,0,.4,0,.7-.5.8-8,1.5-14,1.9-18.2,1.9h0Z"/>
    <path class="st4" d="M290.2,363.4c.4,0,.7,0,1.1-.3,1.8-.5,3.5-1.1,5.3-1.5h.7c.7,0,.8,1,.7,1.5-.8,1.8-2.2,2.4-3.9,3.1-1.9.7-5.3,1.4-6.9,2.7-1,.8-1.9,1.9-2.9,2.7-1.1,1-1.8,1.6-2.6,2.7,2,.8,2.7,1.2,4.8,2.2,1.2.5,2.4,1.2,3,2.3,1.5,2.7-.7,6-1.8,8.3-.7,1.5-1.5,3-2.2,4.5-.3.4-.4,1-1,1.1-1.6.5-3.1-2.2-3.3-3.4,0,1.6,0,3.3-.3,4.9,0,.8-.3,1.5-.5,2.2-1.4,3-5.3,4.5-8,5.8-3.8,1.8-5,3.8-8.6,7.1-2.9,2.6-6.1,1.6-8.8-1.4-.5-.5-1-1.4-1.1-2-.5-3.5.3-4.5,3.8-6.7,3.7-2.3,6.7-4.8,7.3-6.5,1.4-3.4,2.6-6.8,3.8-10.1.5-1.8,1.2-3.4,1.8-5.2.4-1.4.7-3,1.6-4.1.5-.5,1.2-1,1.9-1.2,1.4-.5,2.7-1.4,3.9-2.2,1.5-1.1,2.9-1.9,4.4-3,1.1-.8,2.2-1.6,3.4-2.2,1.2-1,3-1.1,4.4-1.5h0Z"/>
    <path class="st16" d="M232.7,261.8c-11.3,2.4-18-14.7-6.5-26.4,11.6-11.6,40.9-11,45.4,2.7,4.5,13.7-11,17.7-11,17.7l-27.9,6h0Z"/>
  </g>
</svg>