<?xml version="1.0" encoding="UTF-8"?>
<svg id="Layer_1" xmlns="http://www.w3.org/2000/svg" xmlns:xlink="http://www.w3.org/1999/xlink" version="1.1" viewBox="0 0 808 480">
  <!-- Generator: Adobe Illustrator 29.3.0, SVG Export Plug-In . SVG Version: 2.1.0 Build 67)  -->
  <defs>
    <style>
      .st0 {
        mask: url(#mask);
      }

      .st1 {
        fill: #8533ad;
      }

      .st2 {
        fill: #4a1d61;
      }

      .st3 {
        fill: #ef6497;
      }

      .st4 {
        fill: #f7b1cb;
      }

      .st5 {
        fill: #745252;
      }

      .st6 {
        fill: #fff;
      }

      .st7 {
        fill: none;
        stroke: #f7b1cb;
        stroke-linecap: round;
        stroke-linejoin: round;
        stroke-width: .666667px;
      }

      .st8 {
        opacity: .100006;
      }

      .st9 {
        fill: #916666;
      }

      .st10 {
        fill: #5d2479;
      }

      .st11 {
        fill: #461e5f;
      }
    </style>
    <mask id="mask" x="263.231617" y="424.2253953" width="309.4432025" height="27.5812023" maskUnits="userSpaceOnUse">
      <g id="mask0_5502_165740">
        <path class="st6" d="M263.231617,451.8065976h309.4432025v-27.5812023h-309.4432025v27.5812023Z"/>
      </g>
    </mask>
  </defs>
  <g class="st8">
    <g class="st0">
      <path class="st2" d="M572.6748194,438.0157362c0,7.6159872-69.270998,13.7908614-154.72216,13.7908614-85.4500888,0-154.7210424-6.1748742-154.7210424-13.7908614s69.2709537-13.7903409,154.7210424-13.7903409c85.451162,0,154.72216,6.1743537,154.72216,13.7903409Z"/>
    </g>
  </g>
  <path class="st3" d="M276.3720775,280.5244519c-.0586985.0372948-.1189825.0735487-.1803235.1081924-2.2918822,1.2998871-5.9047438.9614522-7.719635.6155682-1.8101345-.348031-7.2902394-1.2993666-17.8349083-7.3218085l-12.6027599-8.234239c-2.3807771-1.5557137-4.8710172-2.8401331-7.4229716-3.8282431,0,0-10.0152189-4.1000579-12.0199546-5.3141489l-1.4612203-.8884402c-1.946699-1.1821147-3.2432727-3.4770405-3.3255934-5.8641706-.1852227-5.7341022,1.6548616-11.0194789,5.1114531-14.6713156.2647245-.2798008.5556785-.5185658.866251-.7141645.6257987-.3954587,1.3348864-.6091762,2.0730056-.6528793-2.8401039-.0458338-7.1685518,4.2732764-8.7841173,7.5749677-2.372368,4.8525907-3.7419025,11.3802939,1.0870258,16.1907917,4.8289073,4.8110183,17.1987262,4.3548111,26.9922131,13.067117,9.1199374,8.1137831,18.1154941,13.8915883,27.2586462,13.0921483,7.4710915-.6533998,9.8639783-3.7584352,10.1817988-6.3880549.0026426-.0186556-.0052893-.0447603-.01005-.0692874-.3146453,1.3952955-1.0787822,2.5848594-2.2088595,3.2979667Z"/>
  <path class="st4" d="M219.7803522,234.4116821c-.3105725.1961191-.6015265.4349005-.866251.7147012-3.4566015,3.6513-5.2957446,8.9366767-5.1114581,14.6713156.0823207,2.3860729,1.3788893,4.6815191,3.3255984,5.8630971l1.4621725.8889769c2.0047358,1.2146115,12.0199032,5.3146857,12.0199032,5.3146857,2.5510547.9880937,5.0412948,2.2719926,7.4220699,3.8277063l12.6027619,8.2347758c10.5446689,6.0224419,16.0247214,6.9737775,17.8348559,7.3217922,1.8148912.3459003,5.4277528.6843351,7.719635-.6155682.0618696-.0351642.1216251-.0719385.1803235-.1087129,1.9513271-1.2322098,2.8244005-3.8826158,2.1432862-6.5692757-.776301-3.0559813-3.45263-6.4376133-4.8000518-7.7678828-1.3431855-1.3254713-5.3050666-5.8886814-16.1733173-12.0971258l-13.2033347-6.5047863c-2.4995478-1.2290057-4.9103096-2.7452777-7.1872256-4.5194907,0,0-9.0722371-6.7979078-11.1162637-7.8904857l-1.4921032-.8004973c-1.6220858-.8671335-3.3864233-.8303592-4.7606011.0367744Z"/>
  <path class="st3" d="M218.6168548,244.431861c-.2554173.1620122-.5912677.1705511-.9036915-.0095961-.5088779-.2845988-.7651945-.9662503-.5752975-1.5178659.0729237-.2105134.2020601-.3709479.3620269-.4716748.2553644-.160955.5902626-.1716083.9045902.0069287.5079792.2920643.7679975.9710646.575297,1.5178659-.0729232.2121236-.2029588.3730785-.3629251.4743422ZM221.7207316,249.170404c-.2824921.1790738-.6613884.1710878-1.0018921-.0767366-.4106773-.2910071-.6211449-.8617987-.5070271-1.3441269.0392913-.1433729.0935467-.2691474.1739802-.3677437.3676843-.4972591.6333605-1.0835022.849434-1.7001438l.2516632-.7232239c.2160736-.6166417.3807461-1.2641861.417182-1.948505.0075093-.1375013.0430455-.2782068.1020082-.4055753.0738754-.1630856.1870945-.2904704.3217834-.3762827.2282367-.1438934.5201423-.1678837.7988803-.045297.5743988.2499551.8840191.98811.6819595,1.567961-.0280269.0810142-.0664195.1540262-.1075607.2217197-.3414558.5148412-.6482741,1.0568607-.8587417,1.6633694l-.3049675.8820482c-.2142227.6091762-.3236877,1.2636494-.3985152,1.9298495-.0075093.0890002-.0243252.1689409-.0533567.2499551-.0748275.2115868-.2039115.3714683-.3648299.472732ZM227.600198,244.7265927c-.3030632.1913211-.6622871.2153114-.9887778.0282354-.5968197-.341086-.8568909-1.2423265-.587513-2.0257784.1225793-.3480147.3302448-.6118273.5753509-.766927.3021645-.1913373.6622871-.2158482.9897289-.0250476.5968207.3400288.8559387,1.2423265.5837064,2.0204436-.120677.3506984-.3283426.614511-.5724955.769074ZM226.458011,249.3265609c-.4125806.2595513-.9513898.2755394-1.4518597-.0133207-.8223068-.4700646-1.237638-1.5594383-.9280167-2.4446907.1169208-.3389553.3255376-.5974494.5828067-.7594615.4116285-.2606247.9513898-.2755394,1.4518597.0122635.8194514.4652666,1.2366859,1.5599588.9280167,2.4446744-.1169733.3389716-.325591.5974494-.5828067.760535ZM228.7929387,253.2043786c-.2843964.1790738-.6660412.1726818-1.0084492-.0714181-.4069222-.2936582-.6211449-.8617825-.5023208-1.3473148.031782-.1460403.0935478-.268074.1702261-.3725418.3704339-.4919243.6370622-1.0776469.8484819-1.6921416l.253514-.7306894c.2142237-.6091762.3788428-1.2567207.4153312-1.9415763.0093601-.1449668.0392903-.2824682.1029069-.4130408.0739288-.1598978.1852437-.2845988.3190349-.3682805.2282357-.1444301.52104-.1705511.7979282-.0511686.5818546.2526225.8877732.9854426.6847615,1.5738325-.0280259.0810142-.0626644.1508384-.1066086.2137175-.3377007.5196393-.6454711,1.0627322-.8596949,1.6708349l-.3049665.8825849c-.2095699.605972-.3199326,1.2604453-.3948135,1.9277025-.0093601.0831449-.0243242.1689572-.0523521.2488979-.0739288.2105134-.2039639.3698744-.362979.4706014ZM224.5514764,253.488457c-.3030642.1902639-.6632392.2147747-.9906286.0250476-.5940702-.3352307-.8559922-1.2423265-.5837579-2.0204598.1225258-.3485514.3302448-.6134375.5752975-.7679842.3021645-.1908006.6604362-.2158482.9860273-.0293252.5968197.3400288.8596939,1.2471245.5874606,2.0257784-.1225268.348031-.3302448.6118436-.5743988.7669433ZM237.0643932,250.1329297c-.302112.1902639-.6604373.2158482-.9859758.0293252-.5968187-.3405655-.8587407-1.2476613-.5865609-2.0263151.1197773-.3469575.3274429-.6107864.5725469-.7658698.3030642-.1913373.6641914-.2158482.9915818-.026121.5940167.3357674.8559912,1.2428632.5837569,2.0204598-.1216271.3485514-.3302448.6139743-.5753489.768521ZM245.0758259,262.3659629c-1.3190206.8314164-3.0440143.8831217-4.6558413-.0367744-2.6193755-1.4954857-3.948658-4.9959636-2.967336-7.8169207.3788428-1.0899104,1.0458362-1.9197166,1.8727969-2.4409498,1.3181229-.8324898,3.0421645-.8825849,4.6521397.0367744,2.6193251,1.494949,3.9495597,4.9959636,2.9663879,7.8243861-.3779472,1.0850961-1.0430362,1.9117144-1.8681471,2.4334843ZM234.0194247,258.8921265c-.3040143.1924108-.6660412.2169216-.9953339.0314558-.5921669-.3432329-.852237-1.2455306-.5828067-2.0289825.1197773-.3448268.3264907-.6070455.5715948-.7616085.3030642-.1923945.6660432-.2179788.992534-.0303661.5968187.341086.8568909,1.2428632.5874586,2.0263151-.1215747.3469575-.3283405.6086394-.5734466.7631861ZM256.3305367,261.1342898c-.3021665.1908006-.6623416.2153277-.989732.0255843-.5940167-.3357674-.8568909-1.2428632-.5846566-2.021517.1197248-.3485514.3264907-.6129008.5715443-.768521.3031146-.1902639.6641894-.2158482.9906801-.0282517.595921.3405655.8587952,1.2476613.5865609,2.0252416-.1216251.3490882-.3292907.6129171-.5743968.7674638ZM254.8085003,265.5125545c-.3040143.1924108-.6660412.2179951-.9953319.0314558-.5930686-.3432329-.8531387-1.2444571-.5837085-2.027909.1225288-.3469575.3292423-.6091762.5733962-.7637391.3040668-.1913373.6651415-.2158482.9916322-.0293089.5968207.341086.8559387,1.2428632.5865609,2.0263151-.1216291.3469575-.328395.6096967-.5725489.7631861ZM260.3661853,263.4388117c-.3031187.1913373-.6641934.2158482-.9916363.0298456-.5930645-.3432166-.8531347-1.2455306-.5827523-2.027909.1197248-.345884.3255386-.6081027.5705922-.7626657.3040668-.1913373.6670458-.2169216.9934841-.0303824.5968732.3416227.8568909,1.2439367.5837569,2.021517-.1206729.3506984-.3274429.6150315-.5734446.7695944ZM253.281812,269.8961541c-.3040143.1913373-.6641894.2158482-.9925319.0298456-.5930645-.3432166-.855039-1.2503124-.5828047-2.027909.1197248-.3469575.3274429-.6107701.5724925-.7653331.3031187-.1918578.6641934-.2169054.9916363-.027715.5940167.3357674.8568909,1.2428632.5837044,2.021517-.1197248.3496249-.3273904.614511-.5724965.7695944ZM258.842301,267.8208173c-.3021665.1913211-.6632413.2158482-.9916363.0303661-.5930645-.3432166-.8559387-1.2503124-.5828047-2.0284458.1197773-.3469575.3274429-.6107701.5725449-.7663903.3030662-.1902639.6641934-.2158482.9915838-.026121.5940167.335247.8568909,1.2423427.5837569,2.0209966-.120677.3501454-.3274429.6150315-.5734446.7695944ZM264.4007768,265.7449276c-.3019567.1902639-.6612845.2158482-.9886749.0309191-.593117-.3432329-.855039-1.2503287-.5828047-2.027909.1197248-.3469575.3273904-.6107864.5724925-.7664065.3031187-.1908006.6642459-.2158482.9915838-.0266415.5938553.3357674.856677,1.2428632.5848664,2.021517-.1226862.3485514-.3315662.6129008-.577463.768521ZM257.3174606,272.2001393c-.3031146.1913373-.6632372.2158482-.9934841.0282517-.5893608-.3384348-.8521826-1.2455306-.5800007-2.0241844.1206729-.3469575.328391-.6118273.5743968-.7663903.3021665-.1913373.6613894-.2169216.986928-.0303824.5968207.3405655.8596908,1.2476613.5874606,2.0252416-.1225288.3490882-.3301944.6129171-.5753005.7674638ZM262.8788453,270.1248025c-.3030622.1918578-.6641894.2163849-.9934316.027715-.5893608-.3378981-.852235-1.2444734-.5800007-2.0236477.1187686-.3485677.3255386-.6123803.5715403-.7674638.3031187-.1913373.6641934-.2163849.989732-.0287884.5968732.3400288.8597433,1.2471245.587513,2.0247212-.1225813.3490882-.3292947.6129008-.5753529.7674638ZM268.4403913,268.0499862c-.3024852.1913373-.6631364.2158482-.9936455.0271782-.5901556-.3373614-.8519203-1.2444571-.5801097-2.023111.1189825-.3490882.3268094-.6129008.5716492-.7674638.3030097-.1913373.6641934-.2169216.9899418-.0293089.596502.3405492.8593237,1.2471245.587513,2.0252416-.1226862.3485514-.3305091.6129008-.5753489.7674638ZM261.3568653,274.503604c-.3040668.1923945-.6660937.2174421-.9953359.0309028-.5921648-.3432166-.852235-1.2444571-.5828047-2.027909.1197248-.345884.3264383-.6081027.5715403-.7626657.3040184-.1913373.6660453-.2169216.9925319-.0303824.5977729.3416227.8568949,1.2439367.587513,2.0263151-.1216251.3469575-.328391.6097129-.5734446.7637391ZM266.9184598,272.428251c-.3040668.1923945-.6663035.2179788-.9957555.0309191-.5917453-.3426962-.8519203-1.2449939-.5827563-2.0279253.1205721-.3469575.327338-.6107701.5737674-.7653331.3019527-.1913211.6641894-.2169054.9915273-.0271782.5959734.3411022.85562,1.2433999.5864519,2.0257784-.1216251.3469575-.328391.6091762-.5732348.7637391ZM265.3886004,276.8102566c-.3019527.1907843-.6610182.2169054-.9894132.0314396-.5922697-.3432329-.8551964-1.2503287-.5827523-2.027909.120568-.3469575.327338-.6113069.5732348-.7669433.3019527-.1902639.6641894-.2158482.9915273-.0261048.5938594.3357674.8561525,1.2423265.5838093,2.021517-.1226821.3485514-.3299766.6129008-.576406.7680005Z"/>
  <path class="st3" d="M282.817804,120.6396375c11.7581844-.287803,22.8876188,9.4563079,24.2577792,21.2299298.6187121,5.3098795-.517179,10.3863205-2.9248765,14.6691931l3.0269341,7.4763633c.3622448.8959057-.4330993,1.8275204-1.3659241,1.5999454l-7.0178962-1.7102686c-.5039618-.1225867-1.0296053-.0053348-1.4500119.3011156-3.7265548,2.7191648-8.2817627,4.3926589-13.2716595,4.5472219-11.7306931.3645396-22.9254345-9.2719074-24.3950623-21.0076897-1.7755505-14.1836608,8.9589635-26.7588535,23.1407173-27.105811Z"/>
  <path class="st4" d="M286.1953392,118.8750043c11.7592495.6049067,22.1298282,11.17884,22.6052336,23.0345334.198838,4.9837082-1.105745,9.6476452-3.4944076,13.5686293-.3458403.5686691-.4161704,1.2647147-.2120471,1.8989385l1.9529086,6.0981294c.2950778.9193512-.567417,1.7886072-1.4796254,1.491753l-6.2236173-2.0252498c-.5055434-.164151-1.0518114-.0783468-1.4986603.2110501-3.9312106,2.5502157-8.6503498,3.9742834-13.7116337,3.8053343-12.3108027-.4109101-22.4240628-10.4188336-23.0377519-22.8186771-.7062857-14.2732058,10.9337151-25.9945938,25.0996011-25.2644412Z"/>
  <path class="st3" d="M293.0429619,142.8459505c0,1.4379251,1.1570401,2.6040436,2.5837889,2.6040436,1.4272652,0,2.5837808-1.1661184,2.5837808-2.6040436,0-1.4384619-1.1565156-2.6040436-2.5837808-2.6040436-1.4267488,0-2.5837889,1.1655817-2.5837889,2.6040436Z"/>
  <path class="st3" d="M281.8955496,142.8459505c0,1.4379251,1.1559831,2.6040436,2.5837889,2.6040436,1.4272652,0,2.5832563-1.1661184,2.5832563-2.6040436,0-1.4384619-1.1559911-2.6040436-2.5832563-2.6040436-1.4278058,0-2.5837889,1.1655817-2.5837889,2.6040436Z"/>
  <path class="st3" d="M270.7476088,142.8459505c0,1.4379251,1.1575727,2.6040436,2.5837848,2.6040436,1.4278018,0,2.5837889-1.1661184,2.5837889-2.6040436,0-1.4384619-1.1559871-2.6040436-2.5837889-2.6040436-1.4262122,0-2.5837848,1.1655817-2.5837848,2.6040436Z"/>
  <path class="st3" d="M425.9176708,89.4428727l-11.4678754-46.510687c-.7371741-2.9575925-3.0168801-4.9299427-5.0919544-4.404798l-1.8323406.4638623c-.0317276.006598-.0645203.0084901-.0962479.0169748l-14.9247296,3.7768904c-2.0761233.5251469-3.1602029,3.3479327-2.4230288,6.3064471l11.4678754,46.509611c.737158,2.9584584,3.0163475,4.9298803,5.0908893,4.4049144l1.8328731-.4636767c.0317276-.0069287.0645203-.0085267.0962479-.0170535l14.9247296-3.7770867c2.0745418-.524966,3.1607193-3.3480578,2.4235613-6.305398Z"/>
  <path class="st4" d="M409.7280176,39.658873l-1.4293874.3620398c-.2321471.058455-.3516662.3705191-.2686355.7061613l.2125716.8504178c.1618171.6524231-.0787864,1.270907-.5362058,1.386874l-8.711707,2.2042905c-.4574194.1159725-.9571531-.315832-1.1189702-.9673222l-.2115226-.8504231c-.0840797-.3365801-.3394981-.5534255-.5716452-.4949704l-1.4293874.3620343c-1.5763897.3988087-2.4024042,2.5408813-1.8429111,4.7866686l11.6487194,46.7603153c.5610747,2.2517553,2.2940044,3.7461757,3.8693451,3.3469884l14.0648733-3.5591079c1.5795689-.3986547,2.4018717-2.5395542,1.8418621-4.7912039l-11.6497845-46.7605059c-.5594932-2.2467146-2.2881785-3.7420085-3.8672148-3.3422565ZM409.0162288,56.227791c-.3463729.0876705-.7297667-.2432439-.8513999-.7315951l-1.253288-5.032741c-.1237311-.4940011.0586944-.9673227.4055999-1.0549943l3.5272003-.8928154c.3458403-.0877244.7292341.2432429.8519163.737244l1.2538205,5.0317824c.1216332.4893108-.0602921.9635382-.4071814,1.0512097l-3.5266678.8919097ZM401.3230321,58.174694c-.347438.0876705-.7297667-.2432439-.8513837-.7325537l-1.2538205-5.0317824c-.1232147-.4940011.059227-.9673227.4061163-1.0549943l3.5303796-.893774c.3426611-.0867658.7250059.2442015.8487371.7382026l1.253288,5.0317824c.1216332.4893098-.0608085.9625786-.4029532,1.050304l-3.5303634.8928154ZM411.5328588,66.3281303c-.347438.0876705-.7297667-.2432439-.8524488-.7372969l-1.2527715-5.0270392c-.1232147-.494055.059227-.9682834.4050835-1.0559539l3.5277168-.8919087c.3463729-.0876726.7287016.2432419.8513837.7372969l1.2527715,5.0260796c.1232147.4950126-.059227.9682813-.4050673,1.0559539l-3.5266678.8928683ZM403.838597,68.2750332c-.3463729.0876705-.7287016-.2432439-.8524488-.7372969l-1.2517064-5.0270392c-.1231986-.494055.0592431-.9682834.4050835-1.0559539l3.5303634-.893775c.3437262-.0867658.7260549.2441487.8487532.7382036l1.2522229,5.0270392c.1237473.494053-.0586944.9682813-.4008391,1.0549943l-3.5314285.8938279ZM414.0219894,76.3209683c-.3469055.0876746-.7297667-.2432948-.8524488-.7372969l-1.252239-5.0270372c-.1237473-.494053.0586944-.9682813.4050673-1.0559539l3.5277329-.8919087c.3458403-.0876726.7287016.2432439.8519163.7372969l1.2517064,5.0260817c.1237473.4949577-.0586944.9682793-.4050673,1.0559539l-3.5266678.8928642ZM406.3277276,78.2678183c-.3463729.0877275-.7287016-.2432419-.8513837-.737244l-1.2527715-5.0270372c-.1231986-.494053.059227-.9682813.4050835-1.0559539l3.530896-.8928683c.3431937-.0876705.7255224.2432439.8482206.7372969l1.2527554,5.0270413c.1232147.4940509-.059227.9682793-.4013717,1.0549943l-3.5314285.893771ZM408.782484,88.1173485c-.3474219.0877234-.7297506-.243246-.8513837-.7315961l-1.2538205-5.032742c-.1232147-.4939981.059227-.9673197.4050673-1.0549943l3.530896-.893771c.3432098-.086715.7255385.2442015.8492858.7381996l1.253288,5.032742c.121617.4883542-.0608247.9625786-.4029532,1.0493464l-3.5303796.8928154Z"/>
  <path class="st4" d="M409.337749,98.1119472l1.4293874-.362413c.2321471-.0580933.3516501-.3704071.2686355-.7061704l-.2125877-.8500719c-.1618171-.6528752.0788025-1.2711108.536222-1.3872973l8.7122234-2.2043195c.4574194-.1156539.9571531.3160425,1.1189702.9673197l.21099.8506046c.0846123.3368328.3394981.5537463.5716452.4951203l1.4293874-.3618803c1.5764058-.3991874,2.4024042-2.5411522,1.8429272-4.7868856l-11.648203-46.7604968c-.5616073-2.2514257-2.2940044-3.7457763-3.8693289-3.3469677l-14.0648895,3.5591019c-1.5801014.3988087-2.4024042,2.5399329-1.8418621,4.7913696l11.649252,46.7602594c.5594932,2.2469613,2.2881946,3.7424471,3.867231,3.342727ZM410.0495378,81.5427543c.3463729-.0876746.7297506.2432419.8513837.7316449l1.2538205,5.0326892c.1232147.494055-.059227.9673238-.4061324,1.0550472l-3.5266678.8928154c-.3463729.0876705-.7297667-.2432419-.8524488-.7372969l-1.253288-5.0317296c-.121617-.4893626.0597595-.963591.406665-1.0512616l3.5266678-.8919087ZM417.7432509,79.5958514c.3469055-.0876746.7297667.2432419.8513999.7326045l1.253288,5.0317296c.1237473.494055-.0586944.9673238-.4061324,1.0550472l-3.5303634.893775c-.3421447.0867109-.7250059-.2442015-.8482206-.7382565l-1.2538205-5.0317296c-.1216332-.4893098.0608085-.9626314.4034858-1.050306l3.5303634-.8928642ZM407.5334242,71.442468c.3469055-.0876726.7297667.2432419.8519324.7372969l1.2527554,5.0270372c.1237473.4940021-.0586944.9682834-.4050673,1.0559539l-3.5277329.8918558c-.3458403.0877234-.7287016-.2432419-.8513837-.737244l-1.252239-5.0261305c-.1237311-.4949617.0587106-.9682305.4050835-1.0559559l3.5266516-.8928134ZM415.227686,69.495565c.3458403-.0876726.7287016.2432419.8519163.7372969l1.2517064,5.0270372c.1237473.494055-.0586944.9682834-.4050673,1.0559539l-3.5303796.893775c-.3431937.0867109-.7260549-.2442015-.8482045-.7382036l-1.2527715-5.0270921c-.1237473-.4940001.0586944-.9682285.4013717-1.0549943l3.5314285-.893773ZM405.0442936,61.4496259c.3469055-.0876705.7292341.2432439.8519324.7372969l1.2527554,5.0270392c.1232147.494055-.059227.9682813-.4050673,1.0559539l-3.5277329.8919087c-.3463729.0876726-.7287016-.2432439-.8524488-.7372969l-1.2516903-5.0261325c-.1232147-.4949597.059227-.9682285.4050673-1.055901l3.5271842-.8928683ZM412.7385554,59.502723c.3458403-.0876726.7287016.2432439.8508673.7372969l1.2527554,5.0270392c.1237473.494055-.0586944.9682813-.4050673,1.0559539l-3.5303796.8928154c-.3431937.0877234-.7260549-.2432439-.8487371-.737244l-1.252239-5.0270921c-.1237473-.4940021.0586944-.9682285.4013717-1.0549943l3.5314285-.893775ZM410.283799,49.6531958c.3469055-.0876726.7297667.2432429.8513837.731647l1.253288,5.0326882c.1232147.494055-.0586944.9673238-.4050673,1.0549943l-3.5303634.893775c-.3431937.0867658-.7260711-.2441487-.8492696-.7382036l-1.2538205-5.0326882c-.1216332-.4884051.0608085-.9626324.4029532-1.0493454l3.530896-.8928672Z"/>
  <path class="st3" d="M403.1543237,50.4611626l-3.5303796.893774c-.3474219.0876726-.5288146.5609403-.4061163,1.0549943l1.253288,5.0317824c.1226821.4893118.5044783.8202263.8513837.7325537l3.5303634-.8928683c.3437424-.0876726.5251189-.5609393.4034858-1.0502511l-1.2538205-5.0317814c-.1231986-.494054-.5050108-.8249695-.8482045-.7382036Z"/>
  <path class="st3" d="M410.8443412,48.5150058l-3.5266678.8928683c-.347438.0876715-.5288146.5609403-.4061324,1.0549943l1.253288,5.0326882c.1226983.4884051.5055595.8193195.8513999.731647l3.5266678-.8919076c.3474219-.0886312.5288146-.5618999.4071814-1.0512107l-1.2538205-5.0317824c-.1221496-.494054-.5050108-.8249684-.8519163-.7372969Z"/>
  <path class="st3" d="M405.669356,60.5592624l-3.5303634.8938279c-.347438.0876726-.5288146.5609413-.4061324,1.0549943l1.2527715,5.0270392c.1232147.494055.5060759.8249695.8519163.7372969l3.5303634-.893773c.3437262-.0867658.5251189-.5600346.4024207-1.0540896l-1.2527554-5.0270392c-.1221496-.494053-.5050108-.8249674-.8482206-.7382565Z"/>
  <path class="st3" d="M413.3593735,58.6173161l-3.5277168.8928154c-.3463729.0877254-.5277495.5609942-.4050673,1.0550472l1.2522229,5.0270392c.1226983.494055.5055595.8249695.8524488.7372969l3.5266678-.8928683c.3469055-.0876705.5288146-.5609393.4061324-1.0549943l-1.2527554-5.0270392c-.1232147-.494053-.505027-.8249674-.8519324-.7372969Z"/>
  <path class="st3" d="M408.1579541,70.5533304l-3.5303634.893773c-.3474219.0876726-.5288146.5609942-.4061324,1.0549943l1.2527715,5.0270941c.1232147.4939981.5060759.8249146.8519163.737244l3.5303634-.8928154c.3437262-.0876746.5251189-.5609962.4024368-1.0549943l-1.2527715-5.0270941c-.1221496-.4940001-.5050108-.8249674-.8482206-.7382016Z"/>
  <path class="st3" d="M415.8501018,68.6071736l-3.5277329.8928683c-.3463729.0876705-.5277495.5609393-.4050673,1.0549943l1.252239,5.0270372c.1226821.494055.5055434.8249715.8524488.7372969l3.5266678-.8919087c.3468893-.0876705.5288146-.5618989.4061163-1.0559539l-1.2527554-5.0270372c-.1232147-.494055-.5060759-.8249695-.8519163-.7372969Z"/>
  <path class="st3" d="M410.6143081,80.4042451l-3.5303634.893771c-.347438.0876746-.5288146.5609962-.4061324,1.0549943l1.2543369,5.0317824c.1216332.4893098.5044944.8202263.8503347.7325557l3.5303796-.8928154c.3437262-.0877275.5251028-.5609922.4045348-1.050306l-1.2548695-5.0317824c-.1221657-.4939981-.505027-.8249674-.8482206-.7381996Z"/>
  <path class="st3" d="M547.7729267,105.9123511c-.0137497,2.9856407-4.6726048,13.9384997-14.2573691,31.5821475-10.0358253,18.475056-12.8882415,20.9879606-17.4138602,21.2837577-.4283385.0282436-.8571935-.0618219-1.2543531-.2281117l-8.3943827-3.5233948c-.3516824-.1470975-1.4272894-.760535-2.1824253-1.7838173-.4791091-.6486098-1.1702734-2.0161903-1.0544661-2.5038452.1174211-.4855242,29.0975187-47.225589,29.0975187-47.225589.2680868-.4775342.5985959-.9140286.9661259-1.2940277s.7725973-.7035071,1.1898328-.9561296c.4183006-.2526225.8487371-.4348964,1.2675864-.529764.4198821-.0954003,9.2415383.3155139,9.6138452.4082468,0,0,2.4330828,2.1973948,2.4219475,4.7705274Z"/>
  <path class="st3" d="M534.3611316,102.0451908c-.6165738-.1385667-.9280399-.8362144-.6213507-1.3931567l5.2892109-9.611985c.2041152-.3696101.6250624-.5600366,1.0349067-.4676209.6160574.1385707.9275235.8362673.620802,1.3934251l-5.2891786,9.6108668c-.2035988.3709397-.624546.5612077-1.0343902.4684707Z"/>
  <path class="st4" d="M544.2547476,100.4010096l-9.4324847-2.345025c-.3712095-.0922002-.7799886-.0826082-1.1993543.0122595-.418817.0964656-.8492535.2776742-1.2675541.5302967-.4172355.2526225-.8223028.5755937-1.1887677.9566623-.36753.3789338-.6980391.8154282-.9672233,1.293495l-26.3513559,46.8248037c-.2818365.500447-.4791091,1.0056921-.5959815,1.4912163-.1158073.487663-.1517631.9550684-.1078673,1.3787706.0444122.4253043.1665779.8047667.3659485,1.1170887.2004034.3123138.478044.5542749.8296941.7024377l8.9285229,3.7467084c.3701767.1556283.7821188.1977293,1.2104573.1422994s.8725247-.2099848,1.3067052-.4498151c.4352134-.2393018.8598401-.563871,1.2479947-.958793.3881545-.3949301.7398046-.859668,1.0290646-1.3809013l27.0435853-48.7557185c.2760268-.4977837.4584846-.9918387.5526022-1.459244.0946663-.4668727.1004761-.9070998.0216897-1.296691-.0777213-.3890626-.2384894-.7285587-.478044-.9945061s-.5573791-.458346-.9476316-.5553443Z"/>
  <path class="st3" d="M540.9221571,108.2435186l-11.1537788-3.0186864c-.1337852-.0367744-.2813201-.0362417-.4335996-.0032001-.1517953.0330457-.3077866.097535-.4595497.1886699-.1523118.0906022-.3003631.2083868-.4341482.3469575-.1348503.1385707-.2554345.298989-.354329.4753994l-4.7783742,8.4964455c-.0994109.1764145-.1665456.3528209-.2041152.5196393-.0375373.1678837-.0459937.3272366-.024304.4684707.0216574.1422994.0719116.2670168.150698.3666784.0777213.1001984.1840394.1737471.3172758.2142461l11.0337433,3.3560559c.1395949.0426296.2934882.0463624.4526426.0159882.1581215-.029317.3220527-.0932696.4806906-.1844086.1591866-.0916676.3135963-.2121154.4531913-.3549516.1401436-.1422994.2654724-.3080525.3664972-.4897855l4.886758-8.8034367c.1009925-.1817412.1687081-.3634824.2041152-.5350907.0343742-.1716164.0375696-.3341654.0100702-.4780668-.026983-.1444301-.0851448-.2707414-.1708061-.3698744-.0862099-.0996616-.2015008-.1721451-.3426773-.2110501Z"/>
  <path class="st3" d="M539.5826592,101.9306063l-2.8698778-.7333527c-.0375373-.0106615-.0787864-.0095961-.121617,0-.0423142.0090594-.0862099.0271782-.1290406.0527625-.0423142.0255802-.0840797.0580933-.121617.0969983-.0375696.038905-.0708787.0831408-.0994109.1321747-.026983.0479645-.0444444.0948676-.0529008.1401687-.0095215.0453011-.0105866.0890042-.0031631.1263113.0068748.0378397.0227225.0708813.0449609.0969983.0227225.0266496.053385.0453011.0898894.0548932l2.8693291.7392161c.0370209.0101288.0793351.0095961.1216493,0,.0428306-.0095921.0867264-.0271782.129557-.0527625.043347-.0255802.0845961-.0586259.121617-.0969983.0375373-.0378397.0713951-.0820755.0983781-.130044.0274671-.0500951.0449286-.099129.0555152-.1454954.0089728-.0453011.011103-.0895369.0037118-.1273766-.0068748-.0383764-.0216897-.0724834-.0449609-.0986004-.0232712-.0255802-.0534172-.0453011-.0920197-.0548932Z"/>
  <path class="st3" d="M512.024009,151.3200118l-2.7334459-1.1160152c-.0343742-.0149228-.0745582-.018127-.1158073-.0122635-.0422819.0058634-.0851448.0207862-.1284919.0442398-.0417655.0234455-.0830146.0554299-.121617.094335-.038086.0383683-.0729767.0847388-.1010248.1358993-.0280158.0495665-.0475752.1007351-.0586783.1497649s-.0142984.0959289-.0084564.139632c.0058097.0421092.0184943.0810142.0391189.1119252.0206245.0314477.0486404.0559585.0840797.069816l2.7318644,1.1229521c.0354071.0149228.0756233.0186474.1179053.0122554.0412491-.0058634.0840797-.0207862.1269426-.0442398.0422819-.0234455.083531-.0554218.121617-.0943268.0375373-.0383764.072428-.0836816.1004761-.1348421.0290809-.0506319.0486404-.1039311.0608085-.1534895.011103-.0501033.0148148-.0980677.0090051-.1417708-.0042605-.0431664-.0174615-.0820796-.0391511-.1129905-.0206245-.030911-.0486404-.0554218-.0851448-.0708813Z"/>
  <path class="st3" d="M521.8446483,123.8278015l-1.0195754-.3320347c-.1316549-.0431664-.2786734-.0468991-.4294036-.0186556-.1512144.0282517-.3077543.0906022-.4610989.1790738-.1517953.0895369-.3003953.2067888-.4357621.3453636-.1348503.1391034-.2575324.300587-.3585249.4785954l-.0084564.0159882c-.1010248.1790738-.1702897.3592129-.2083757.5302926-.0396353.1710878-.0481239.3347021-.0274994.4807342s.07033.2750108.1470185.3789338c.0777536.1033944.1824578.1806759.3146615.2254443l1.0163801.3389634c.1332365.0447684.2808036.0500951.4330831.0229169.1517631-.0271864.3098846-.0884716.4632615-.1774799.1533446-.0895369.302461-.206252.4388929-.3469575.1364318-.1401687.2601791-.3032544.3612039-.4844589l.0089728-.0159882c.1009925-.1801391.1702897-.3602783.2088921-.5324233.0380537-.1716164.0454773-.3357674.0253692-.4828649-.0206245-.1470975-.072428-.2766048-.150698-.3799991-.0787864-.1039311-.1845558-.1822779-.318341-.2254443Z"/>
  <path class="st3" d="M525.6314629,125.06054l-1.0428143-.3395002c-.1348503-.0442317-.2834503-.0490298-.43786-.0197128-.1533446.0282436-.3114661.0900655-.4658758.1796024-.1544097.0906022-.3040748.2083908-.4410231.3490882-.1364318.1407055-.2596627.3037911-.3606552.4839302l-.0095215.0159882c-.1010248.1806759-.1702897.3629457-.2094085.5350907-.0386024.1737471-.0470588.3384348-.0254014.4855242.0216897.1481628.0719438.2792722.1507302.3837319.0793028.1060618.1872024.1849372.3209876.229177l1.0401677.3469575c.1353667.045297.2839667.0522258.4384087.0234455.1554426-.0271782.3146292-.0884716.4695876-.1780085.1565077-.0906022.3072379-.2083827.4452513-.3496168.137497-.1422994.2628258-.3075239.3643347-.4903223l.0090051-.0159882c.1020576-.1812126.1713225-.3640191.2088921-.5382948.0380537-.1737471.0454773-.339492.0232712-.4887202-.0227548-.1476342-.0740418-.2787436-.154442-.3842686-.0793028-.105525-.1882353-.1838719-.3236343-.2281036Z"/>
  <path class="st3" d="M529.4897049,126.31513l-1.0613409-.3453636c-.1374647-.045297-.2902929-.0506319-.4463164-.0223802-.1570564.0282436-.318341.0900655-.4753973.1817331-.1559913.0906104-.3088195.2094562-.4468328.3506902-.1380457.1422994-.2623093.3064504-.3643669.4881916l-.0090051.0170535c-.1020576.1828065-.1713225.3666784-.2099249.5414908-.038086.1753411-.0454773.3421594-.0232712.4919243.0232712.1497568.0761397.2819314.1570564.3885218.0824982.1076638.1919793.1876046.3305091.2339751l1.0586943.3533495c.137497.0453052.28926.0516972.4463164.024519.1570564-.0271864.3188897-.0895369.4769789-.1801473.1581215-.0906022.3114984-.209448.4500282-.3522842.14066-.1433648.2665375-.3101831.3685951-.4951203l.0095215-.0159882c.1020576-.1838719.1713225-.3677437.2083434-.5441501.0386024-.1764064.0449609-.3442901.0206245-.4951203-.0222061-.1497649-.0766884-.2824682-.1586379-.3890585-.0824982-.1065985-.1940773-.1870679-.3315742-.2318363Z"/>
  <path class="st3" d="M519.5178512,127.9737014l-1.0147985-.3442982c-.1316872-.0442317-.2776406-.0500951-.4283385-.0229169-.150698.027715-.3067215.087943-.4595497.1753492-.1512467.0890002-.3003631.2057234-.4357298.3442901-.1359154.139632-.2580489.3016523-.3590736.4817914l-.0095215.0159882c-.0999274.1790819-.1702574.359221-.2094085.5318947-.0396675.1716164-.0481239.3363042-.0280158.4834016.0195594.1481628.0671669.279264.1438231.3847972.0766884.105525.1803276.1860025.3114661.230771l1.013217.3517474c.1327523.0463705.2797385.0527625.4309852.0266496.1528282-.0271782.3098846-.0879348.4632615-.1764064.1533446-.0884716.3030097-.2062602.4394416-.3469575.1369483-.1396401.2601791-.3027258.3611716-.4833935l.0095215-.0165249c.1020576-.1806759.1713225-.3629457.2104736-.536156.0391189-.1737471.0475752-.3395002.0269507-.4865895-.0206245-.148171-.0708464-.2792722-.1486-.3847972-.0787864-.1044678-.1840071-.1838719-.3172758-.2286403Z"/>
  <path class="st3" d="M523.2914648,129.2490694l-1.0391026-.3517556c-.1338175-.045297-.2829339-.0516972-.4352134-.0245108-.1533769.0271782-.3114984.0879348-.464843.1774717-.1544097.0884716-.3040748.2062602-.4405067.3469575-.137497.1412341-.2612442.3043197-.3633018.4860609l-.0089728.0170535c-.1015412.1801391-.1713548.3629457-.21099.5366928-.038086.1742757-.0476075.3400288-.026983.4903223.0206245.1486996.07033.2819396.1486.3890585.0787864.1065985.1856209.1876046.318341.2339751l1.0364882.3602783c.1348503.0463705.2834503.0538279.43786.0261129.1544097-.0261129.3130476-.0874062.4685225-.1769431.15654-.0895369.3067215-.2073174.4452513-.3490882.1385621-.1422994.2628258-.3064504.3648834-.4892569l.0084564-.0159882c.1031227-.1838719.1729363-.3677437.2115387-.5430848.0391189-.1753411.0465424-.3421594.0253692-.4919243-.0216574-.1502935-.0729767-.2829968-.1528282-.3895953-.0803679-.105525-.1877188-.1865311-.3225691-.2318363Z"/>
  <path class="st3" d="M527.134892,130.5505586l-1.0571127-.357619c-.1374647-.0468991-.2881949-.0532911-.4441862-.0271782-.15654.0271782-.3172758.0884716-.4732994.1780085-.1570564.0895369-.3088195.2083908-.4473815.3501535-.1385298.1422994-.2638586.3080525-.3664649.4919243l-.0084564.0159882c-.1031227.1828065-.1723876.3666784-.2104736.5430848-.0396675.1764145-.0470588.3442982-.0253692.4961857.0222061.151367.0740418.2862009.1554748.394922.0803679.1081924.1898491.1913373.3262809.2382365l1.0544338.3661417c.137497.0468991.2887436.0543646.4463164.0282517.1570887-.0266496.3188897-.087943.4770111-.1780085.1570564-.0906022.310401-.2094562.4505446-.3528209.1395949-.1422994.2649237-.3091178.3680464-.4929897l.0090051-.0170535c.1031227-.1849372.1734527-.3714765.2115065-.5489482.0386024-.1769431.0449609-.3469575.0227548-.4983163-.0237876-.1518956-.0772049-.2856723-.1581215-.3943934-.0824982-.1076557-.1930122-.1891985-.3305091-.2355691Z"/>
  <path class="st3" d="M517.1878911,132.1334505l-1.0126683-.3554802c-.129557-.0463705-.2749939-.053836-.4251754-.027715-.150698.0266415-.3072379.0858042-.4584846.173739-.1517631.0874062-.3003631.2035928-.4367949.3432329-.1359154.139632-.259114.3016523-.3601387.4828568l-.0095215.0159882c-.1009925.1801391-.1702574.360815-.2104413.5345621-.0391511.1732104-.0497377.3384267-.030146.4881916.019043.1486914.0666182.2819314.1422416.3885299.0756233.107119.1798112.1891985.3098846.2355691l1.0089888.364011c.1322036.0468991.278157.0554218.4294036.0303742.1527959-.0266496.3098846-.0858042.4632292-.1748125.1533446-.0874062.3019446-.20465.4389251-.3448187.1364318-.1407055.2606955-.3037911.361688-.484467l.0095215-.0165168c.1020576-.1828065.1723876-.3656131.2126039-.5398888.0391189-.1742839.0486404-.3416308.0285322-.4903223-.0206245-.1497649-.0697813-.2830049-.1464698-.3895953-.0777536-.1065904-.1834907-.1876046-.3151779-.2334384Z"/>
  <path class="st3" d="M520.9440755,133.4535952l-1.0349067-.364011c-.1337852-.0469072-.2808036-.0543646-.4341482-.0282517-.1523118.0255843-.3104333.0858123-.4637779.1742757-.1533446.0890083-.3040748.2057234-.4415718.3469575-.1364318.1407055-.2612119.3048565-.3632695.487663l-.0090051.0159882c-.1009925.1822698-.1723876.3650763-.2115065.5404174-.0402162.1753492-.0486726.3432329-.0291132.494055.0195917.1508302.0692972.2856723.1470185.3938566.0766884.1087292.1834907.1913373.316243.2393018l1.0317113.3714765c.1337852.0484931.2823852.0570239.4367949.0314396.1533446-.0266415.3125312-.0858042.4685225-.1753411.1554748-.0884716.3062051-.2067888.4447349-.3480228.1385621-.1422994.2628258-.3075157.365432-.4903223l.0084564-.0159882c.1031227-.1849372.1739692-.3693458.2136367-.5457522.0391189-.1774799.0475752-.3458922.0259179-.4967224-.0216897-.1508221-.0719116-.2856642-.1507302-.3933199-.0793028-.1087292-.1861373-.190272-.3204389-.2376997Z"/>
  <path class="st3" d="M524.7694925,134.7971854l-1.0523358-.3704111c-.137497-.0479645-.2881949-.0564871-.4441862-.0303742-.1554748.0255843-.316243.0858042-.4722343.1748125-.15654.0895369-.3088195.2073174-.4473815.3496168s-.2638909.3080525-.3670136.4929897l-.0089728.0159882c-.1020576.1838719-.1723876.3688091-.2115387.5457522-.0391189.1774799-.0486404.3469575-.0269507.5009837.021141.1524242.0729767.2893969.1522795.3986547.0804002.1113885.188784.1950619.3257645.2440917l1.0502379.3784052c.1369483.0490298.2871298.0580892.4447026.0330416.1560235-.0255843.3178245-.0858042.4748809-.1753411.1581215-.0906022.3114661-.2094562.4521584-.3517556.1390785-.1433648.2654401-.3101831.3685628-.4951203l.0090051-.0170535c.1041556-.1854739.1739692-.3730704.2136367-.5516156.038086-.1790738.0465424-.3496168.0232712-.5025777-.0227548-.1534976-.0751069-.2893969-.15654-.3986547-.0803679-.1103231-.1903655-.193468-.327346-.2414325Z"/>
  <path class="st3" d="M514.847893,136.309196l-1.0079237-.3677437c-.1301057-.0468991-.2739288-.0564953-.4246267-.030911-.1496651.0245108-.3046235.0836735-.4574517.170543-.1522795.087943-.3003631.2035928-.4357298.3421594-.1364318.1396401-.2601791.3027258-.3622367.484467l-.0084564.0165168c-.1020576.1796105-.1708061.3618803-.2115387.536156-.040184.1742839-.051287.3405655-.032244.4913957.0184943.1497568.0661018.2835335.1417251.3922546.0750746.1081924.178746.1913292.3077543.2393018l1.0047606.3752011c.1322036.0490298.2770919.0596913.4288549.0351723.1512467-.0239822.3077866-.0820714.4611312-.1700144.1523118-.0868695.3019446-.2025193.4383764-.3432248.1369805-.139632.2601791-.3032544.3622367-.4855242l.0095215-.0159882c.1015412-.1828065.1729363-.3666784.2131203-.5430848.040184-.1753492.0507706-.3432248.0306625-.494055-.0195594-.1518956-.0681998-.2856642-.1448882-.3938566-.0766884-.1076638-.1813927-.1908006-.3130476-.2387651Z"/>
  <path class="st3" d="M518.5829042,137.674101l-1.0296133-.3762664c-.1327201-.0479645-.2797385-.0575606-.432018-.0330416-.1528282.0255762-.3109497.0852674-.4642943.1726737-.154442.087943-.3040748.2046581-.4415718.3458922-.1364318.1407055-.2606955.3053851-.3638182.4887283l-.0095215.0159882c-.1020576.1828065-.1718712.3666784-.2120552.5430848-.040184.1753411-.0497055.3437615-.030146.4956489.0195594.1529609.0681998.287803.1448882.3981261.0777536.1103231.1824578.1939966.3151779.2430264l1.0274831.3847972c.1337852.0490379.2813201.0591627.4346969.035709.153861-.024519.3119825-.0831368.4669409-.1716083.1554748-.0874062.3061728-.2046581.4441862-.3458922.1385621-.1417708.2633744-.3064585.3659485-.4903223l.0095215-.0170616c.1026063-.1849372.1739692-.370403.2141854-.5484115.040184-.1774799.0486404-.3480228.0280158-.5009837-.0195594-.1524242-.07033-.2883316-.1486-.3975894-.0787864-.1097864-.1856209-.1934599-.3194061-.2424978Z"/>
  <path class="st3" d="M522.3967018,139.0667291l-1.0486241-.3832033c-.1359154-.0495584-.2860969-.0591545-.4415718-.0346356-.1554748.0245108-.3162107.0836735-.4722343.1726737-.1565077.0884716-.3077543.2062602-.4473492.3485596-.1385621.1422994-.2638909.3085811-.36753.494055l-.0095215.0159882c-.1020576.1849372-.1729363.3709397-.2131203.5489482-.0396675.1780085-.0481239.3485514-.0274994.5025777.0216897.1534976.0724602.290999.1517631.4023874.0793351.1124538.1882675.1982579.3236343.2488898l1.0460097.3906606c.1364318.0506319.2860969.0618219.4426046.0373111.1560235-.024519.3167594-.0826082.4748809-.1716164.1570564-.0884716.3098846-.206252.4500282-.3485514.1395949-.1433729.2654724-.3101831.369628-.4961857l.0084564-.0170616c.1036714-.1865311.1750665-.3741357.2152505-.5542749.0391189-.1801391.0475752-.3522842.0259179-.5068471-.0222384-.1550916-.0740418-.2925929-.154442-.4039814-.0803679-.1108599-.1898168-.1961273-.3262809-.2456938Z"/>
  <path class="st3" d="M512.4983735,140.5035888l-1.0031791-.3794705c-.1290083-.0490298-.2739288-.0586259-.4235616-.0351723-.1496651.0234536-.30514.0810061-.4563866.1678837-.1517631.0868695-.2992979.2014539-.4362462.3405574-.135399.1385748-.2591463.3016605-.3601387.4823282l-.011103.0197209c-.1020576.1822698-.1729363.364011-.2131203.5393602-.0412491.1764064-.0523521.3442901-.0338255.4961857.0179779.1518874.064488.2867295.1395949.3970526.0745582.1103231.1776809.1950619.3067215.2446285l.9999837.3879932c.1300734.0495665.2760268.0612933.426757.0383764.1501815-.0234536.3066892-.0810142.4600661-.1678837.1522795-.0858042.3019446-.2014621.4389251-.3421594.1364318-.1396401.2606955-.3037911.3627531-.4865977l.011103-.0197128c.1031227-.1828065.1729363-.3666784.2141854-.5441582.040184-.1758778.0507383-.3448187.0317276-.4977796-.0185266-.1513588-.0671669-.2872662-.1427903-.396524-.0766884-.1103231-.180844-.1945333-.3114661-.2446285Z"/>
  <path class="st3" d="M520.012808,143.3511956l-1.0443959-.394922c-.1353667-.0522339-.2850318-.063424-.4405067-.0399785-.1544097.0239904-.3151779.0820796-.4706527.1700144-.1559913.0874062-.3077543.2046581-.4457677.3469575-.1396272.1412341-.264956.3069871-.3680787.4919243l-.0121359.0207862c-.1026063.1849372-.1740014.3714765-.2141854.5516156-.040184.1790738-.0497055.3517474-.0290809.5073757.0206245.1556202.07033.294195.1496651.4071774.0787864.1140559.1861373.2009335.3220204.253696l1.0402.4034446c.1358831.0516972.2860647.0639607.4415395.0415724.1554748-.0229169.3173081-.0810061.4743645-.168949.1570564-.0874062.3098846-.206252.4500282-.3485514.1390785-.1428362.2654401-.3101831.3701444-.497251l.0116517-.0207862c.1036391-.1865393.1745178-.3741439.2141531-.5553483.0402162-.1806677.0486726-.3533495.0280481-.5100431-.0216897-.1556202-.0729767-.2947236-.1528282-.4082427-.0804002-.1129905-.188784-.19986-.324183-.2504919Z"/>
  <path class="st3" d="M534.2622694,266.7660873l.0015815.0495584c.0311789.7903806.4584846,1.5114739,1.134834,1.9122674l51.8338666,30.6947604c.8720083.5159147,1.9793429.3762664,2.6969737-.341086l27.6865934-27.6712922c.2607278-.2622187.4087791-.6187561.4087791-.9902407v-.8644499l-83.7626284-2.7895175Z"/>
  <path class="st4" d="M565.8272129,249.5813141l-31.5163031,17.0808421,52.9480761,30.5077007c.8598724.4945917,1.940224.359221,2.653078-.334694l28.0351126-27.2822255-51.1141701-20.0339658c-.3283789-.1279215-.6953925-.1055413-1.0057935.0623424Z"/>
  <path class="st3" d="M578.996258,213.258497l38.7986066,55.9917065.116356.3384348c.4452513.2036009.8519001-.3602783,1.0121519-.827155l15.004565-43.752818c.1311385-.3805277-.1009925-.7909174-.4928588-.8708581l-54.4388207-10.8793102Z"/>
  <path class="st4" d="M578.2384755,213.6310388l-10.4218818,35.5063317c-.0803679.2750027.0608085.5665303.3252158.6720553l49.8656268,19.8037234,15.4366475-44.6625812c.1073509-.3091097-.0809166-.6422097-.3987412-.7072358l-54.1209961-11.0280016c-.3014282-.0613015-.5986282.1188458-.685871.4157082Z"/>
  <path class="st3" d="M569.0698816,250.1324092c-.2395546-.094335-.5087065-.0687669-.7265713.0687507l-.3950294.2510123c-.2411361.160955-.1993706.5297722.0719116.6315563l1.3098683.4951285c.2252884.0858123.3030097.3682805.1523118.5580076-.1486.1865393-.0756233.4658033.1454046.554283l38.6304472,15.5730929c.1099976.045297.2363915.0303661.3347373-.0383846l1.1924795-.8420697c.0994109-.0698241.2273864-.0847388.3400306-.0378478l3.9999349,1.669241c.1216493.0495584.2607278.0287722.3627854-.0559667l.2808036-.2366344c.207827-.1732023.1533446-.5073757-.097313-.6070455l-45.601801-17.9831236Z"/>
  <path class="st3" d="M550.9379065,259.8152267l48.5901327,22.6705142,11.0220593-10.4982457-46.8011553-19.3235259-12.8110367,7.1512574Z"/>
  <path class="st3" d="M578.2739149,216.7627158l-8.9073497,30.3472662c-.1311708.4439599.0999274.9145612.5303961,1.0792408l46.9486902,17.9852705c.4611312.1769431.9756474-.0634159,1.1411602-.5318866l13.0902911-37.1803544c.1776809-.5036511-.1248124-1.0494115-.6419752-1.1629224l-51.132148-11.151125c-.4500282-.0980596-.8989912.1694776-1.0290646.614511Z"/>
  <path class="st3" d="M563.8774673,268.0073403l14.9125776,6.9967107-9.7698687,8.0327688-14.3990942-8.2923201,9.2563854-6.7371594Z"/>
  <path class="st7" d="M550.9379065,259.8157472l12.8110367-7.1512574"/>
  <path class="st7" d="M554.6655264,261.5681331l12.6862566-7.4076208"/>
  <path class="st7" d="M558.3957607,263.3188925l12.5614765-7.6639516"/>
  <path class="st7" d="M562.1276088,265.0696681l12.4361477-7.9208518"/>
  <path class="st7" d="M565.8578753,266.8247051l12.3107866-8.1771989"/>
  <path class="st7" d="M569.5875932,268.5754808l12.1865552-8.4335623"/>
  <path class="st7" d="M573.3157295,270.3257197l12.0612264-8.6899095"/>
  <path class="st7" d="M577.0459961,272.0764954l11.9353489-8.9462566"/>
  <path class="st7" d="M580.773616,273.828865l11.8105365-9.20262"/>
  <path class="st7" d="M584.5038825,275.5796407l11.6857242-9.4589672"/>
  <path class="st7" d="M588.2336004,277.3304163l11.5609441-9.7158673"/>
  <path class="st7" d="M591.9659649,279.081192l11.436164-9.9722144"/>
  <path class="st7" d="M595.695715,280.8335616l11.3108029-10.2285616"/>
  <path class="st7" d="M599.4238514,282.5843373l11.1854741-10.484925"/>
  <path class="st7" d="M563.8462561,252.5584281l46.7625529,19.5319248"/>
  <path class="st7" d="M561.6744175,253.7725191l47.0687257,20.0830037"/>
  <path class="st7" d="M559.5068071,254.9871306l47.373317,20.6335458"/>
  <path class="st7" d="M557.3370664,256.2033523l47.679522,21.1840879"/>
  <path class="st7" d="M555.1652278,257.4185005l47.984662,21.7341096"/>
  <path class="st7" d="M552.9976173,258.6304446l48.2892532,22.2851884"/>
  <path class="st7" d="M550.8279089,259.8450724l48.595426,22.8357305"/>
  <path class="st3" d="M604.3180329,219.9721865l1.5060435.3037911-1.5060435-.3037911Z"/>
  <path class="st11" d="M440.9724899,168.3949824c-4.864568-11.030669-1.1226659-22.4386779-9.0739275-33.8466868-7.6709906-11.0312058-23.9484191-8.6739294-27.0356453-1.4144796-5.4256427-.1886699-12.254755,2.5454176-15.3414325,13.8590916-3.1808274,11.9740187.1866699,20.9304082-13.5646233,28.0960516-13.0966333,6.8826467-10.0094071,16.4988442-8.512869,19.7046066,1.4965543,3.2057462.9354796,2.6397526-3.1808113,9.8997229-4.1157745,7.2594498,2.0581454,12.538955,5.8000315,12.727625,3.3680299.1886699,6.6419098-3.5825656,19.8321444-1.6969397,12.9094148,1.8856096,12.7227449-6.034185,29.7484506-8.4852676,9.0739275-1.2258016,7.670458-8.5795863,14.7803739-9.8997229,6.267505-1.1309461,10.5709983-6.4109881,11.132073-12.538955.3744049-5.280042-2.3389491-11.3136739-4.5837644-16.405046Z"/>
  <path class="st11" d="M433.9545937,161.698875l-31.5252759,7.3543134c3.6482848,8.6733927-2.8064226,13.6704298-6.8291122,15.7447093-4.0226897,1.9799446-8.0448629,2.8284225-8.3256665,6.8826467-.2808036,4.0536874.2808036,7.6367897-2.8064064,8.5795863-2.993625,1.0371479-11.9739513,4.9021654-10.7582168,10.0878724,1.0290808,4.7140322,8.512869,3.5825493,12.0680851,3.5825493,3.5546836,0,11.5995465,3.0170925,20.5804054-3.5825493,9.26113-6.7883117,13.0966172-5.2795052,18.8030636-7.4481197,4.4901632-1.7912746,7.670458-6.5996418,6.8285797-10.0878724-.8418784-3.583086,1.9645442-4.9026858,3.6482848-9.3342498,1.6842731-4.5253622-.3738723-14.5188996-1.6837406-21.7788862Z"/>
  <path class="st9" d="M300.8387407,211.7640685c-.6546679.3768031-2.5256189-.8484617-4.1157583-.1886537-1.6842812.6597918-3.0872262-.3773399-3.2744206-2.0742795-.1872024-1.6969559,3.1808194-4.0542404,3.2744206-5.845515v-.2830049c.3738723,1.2258178,1.2157426,3.1114274,2.5256189,4.2428941,1.5901394,1.413951,2.1517466,3.6769005,1.5901394,4.1485591ZM386.3411896,203.2788171c-10.8512855,1.8856096-37.1381211,52.0430237-37.1381211,52.0430237,0,0,.6546759-3.3944324-23.5740304-26.3985833-4.7709587-4.525899-8.3256504-8.1084482-10.0099235-9.9940741-1.6837487-1.8856096-6.1739118-7.4481035-8.1384641-8.8625912-2.0581454-1.5082697-8.4192516-6.2223019-9.4483243-8.1079115s-1.5901474-.3773399-1.5901474.3773399v.3767869c-.2808036-.0943187-.8418703.4716748-1.6837487.659808-1.870943.4716748-3.8354872,3.4887673-4.7709587,4.8083671-.9354796,1.3201528-.2808036,4.431564-.2808036,4.431564,0,0-2.6192202-1.0371316-2.9000157-2.0742795-.1872024-1.1314666-1.6837487-1.4144715-1.8709511-.5660098-.1872024.8490147.2808036,2.8289593.2808036,2.8289593,0,0-.5615992.0937982-1.5906719-.4716748-1.0285482-.5654731-3.1802949-2.6397526-3.8349708-2.2629495-.6552004.3773399.2802792,3.0170925,1.6837487,4.431564,1.402945,1.413951,5.0512379,4.3366923,7.1093833,4.6196972s13.7518257,1.1314829,17.0257137,2.6397526c2.1517466.9428129,3.9290965.659808,11.6000791,12.7281617,2.9936169,4.7140322,22.4513484,40.8236685,33.1159479,40.8236685,2.5256189,0,16.4641145-10.7482009,33.5834375-39.2210638,8.8867251-14.8019045,10.6640669-21.1190781,10.009391-26.587237-.4674574-4.5253785-3.9290884-6.788328-7.5773733-6.2223182Z"/>
  <path class="st5" d="M347.0486752,274.0820243c1.2162671.659808,2.3389491,1.1314829,3.3674973,1.1314829,2.5261354,0,16.4646309-10.7482171,33.5839539-39.2210638.4674735-.754143.8418784-1.413951,1.3093357-2.168094l-3.27388-.7546635s-20.7676078,31.018801-27.2223152,37.0524492c-4.1162909,3.8655542-6.4547235,4.2428941-7.7645918,3.9598892Z"/>
  <path class="st9" d="M531.3379093,207.6139155c1.2162671-1.1314666,2.1517628-3.0170925,2.5261354-4.2423573v.2824682c.186686,1.7918114,3.4611147,4.1485591,3.2739122,5.8454988-.1872024,1.6969559-1.6837567,2.7340876-3.2739122,2.0742795-1.6842731-.659808-3.5552.659808-4.1162909.1886699-.748261-.4716748-.0936012-2.7340876,1.5901555-4.1485591ZM436.387144,209.4051901c-.7482771,5.4687119,1.1226659,11.7853488,10.0099235,26.5872533,17.1187904,28.4728466,30.9642174,39.2210638,33.5834375,39.2210638,10.6645995,0,30.0287216-36.1096526,33.1159479-40.8236847,7.7640593-11.973482,9.5419336-11.7853325,11.5995465-12.7281454,3.2744287-1.5082697,14.8744916-2.3567477,17.0257057-2.6397526,2.0581616-.2830049,5.7064464-3.2052257,7.1099159-4.6196972,1.4029531-1.4139348,2.3384165-3.9598892,1.6837567-4.4310273-.6546921-.3773399-2.8064226,1.6969397-3.8354872,2.2624127-1.0290969.5660098-1.5901555.4716748-1.5901555.4716748,0,0,.4674574-1.9799446.2802872-2.8284225-.186686-.848478-1.5901555-.5660098-1.8709591.5654731-.186686,1.1314666-2.9000238,2.0742795-2.9000238,2.0742795,0,0,.6552085-3.0170925-.2802549-4.4310273-.9354957-1.3201528-2.993625-4.337229-4.7709829-4.8083671-.8418622-.1886699-1.4034695-.848478-1.6837567-.6603448v-.3768031c0-.8484617-.4679738-2.2629495-1.5906719-.3773236-1.0290646,1.8856096-7.3901708,6.6939767-9.4483324,8.1084482-2.0576129,1.4139348-6.4547074,6.8821099-8.1384318,8.8620545-1.6837567,1.8856096-5.2384403,5.5630469-10.0094233,9.9940741-24.2292066,23.0046877-23.5740143,26.3985671-23.5740143,26.3985671,0,0-26.1932344-50.1573978-37.1386537-52.0430074-3.4610824-.4716748-7.0157821,1.7912746-7.5773733,6.2223019Z"/>
  <path class="st5" d="M483.3485349,274.0820243c-1.2162994.659808-2.3389652,1.1314829-3.3675134,1.1314829-2.5261354,0-16.4646309-10.7482171-33.5839539-39.2210638-.4674735-.754143-.8418622-1.413951-1.3093357-2.168094l3.27388-.7546635s20.7676078,31.018801,27.2223152,37.0524492c4.116307,3.8655542,6.5483086,4.2428941,7.764608,3.9598892Z"/>
  <path class="st10" d="M534.7053904,338.0052522c-18.6158612-18.7617937-37.0445199-23.9474844-48.6445828-26.587237-11.5064778-2.5454176-25.3513722-6.8821262-28.251396-10.7476804-2.9000077-3.8655542-80.0767901-4.337229-82.9768139-.4716748-2.9000238,3.8655705-12.4414249,5.185707-25.257771,9.8997392-11.1320811,4.1480386-34.0514274,9.0507245-52.6672886,27.8125181-18.6158612,18.7623141-2.9000238,44.7835739,36.2967753,43.4634373,36.8573175-1.2252811,75.6797117-16.6875304,83.0698987-20.4587496,7.2971022,3.7712192,47.1480447,17.818997,84.0058785,19.0447986,39.1962827,1.3201365,53.0417096-23.1933577,34.4252997-41.9551513Z"/>
  <path class="st9" d="M362.205552,368.080736c-9.3547151,7.1650986-13.003016,9.1450594-20.5803973,11.0306528-20.1129319,5.1857233-27.8769911,21.2134293-23.1065569,29.7929994,2.3389491,4.1480386,14.593696-10.7482009,39.1031898-22.9103528,2.7128214-1.3201365,6.1739199-2.1685982,9.26113-3.3000974,1.3098844-6.2223019-.9354634-11.6904771-4.6773656-14.6132021Z"/>
  <path class="st5" d="M357.7132747,386.0867765c2.6192202-1.3196161,5.8936488-2.0742958,8.8867413-3.1108745l-8.4192678-11.785365c-6.5483086,4.7140484-10.1029922,6.4109718-16.5577077,8.0141133-3.6482929.9428292-6.9227135,2.2624127-9.729136,3.8650337,3.9290965,1.1314666,5.0517704,3.0170925,5.4256427,4.337229.7488016,2.8284225-.6546759,7.2594661-8.793132,14.5194201-6.1744363,5.5625101-8.606454,7.1651311-10.0099316,6.8821262,0,.094335.0936012.094335.0936012.1886699.0936012.094335.1872024.2830049.2808036.3773399,2.8064145,2.8284225,15.0611695-11.5023601,38.8223862-23.2876926Z"/>
  <path class="st1" d="M475.3041885,307.9292478s-2.5256189-.6597918-7.2029845-2.2629495c-4.4901632-1.6026047-6.1739038-3.0165557-9.1675288-6.4109718-2.9936089-3.3938956-9.7291199-6.6939767-15.7163699-16.1220411-5.9867013-9.5223993-1.5901394-24.7016274.2808036-35.1668396,1.870943-10.465196,1.4970707-14.0477615,1.4970707-14.0477615,0,0,2.9930925-.3773236,10.1966095-3.7712192,7.2029845-3.3938956,8.7931239-6.8826467,8.7931239-7.6367897,0-.7541267-1.4965382-.9427967-6.8285797-8.3909164-5.2389729-7.4481197-8.1389805-13.0106136-16.4646471-15.0848932-8.3256504-2.0742958-15.5286349-3.3000974-18.8030475-3.5825656h-10.7576843c-3.1808113.3768031-13.0966172,1.7912746-21.4228002,3.8655542-8.3256665,2.0737591-10.9448867,6.8821262-16.1833109,14.3302297-5.2389729,7.4486565-7.5773894,8.8625912-7.5773894,9.6167343,0,.7546797,2.4320177,4.431564,9.5419336,7.8254596,7.2029845,3.3938794,10.009391,2.8284063,10.009391,2.8284063,0,0-.3743887,3.5825656,1.4965543,14.0477615,1.870943,10.4652122,6.3616387,26.2104501.2808036,35.6385145-5.98725,9.5223993-12.7227611,12.1621519-15.7158535,15.6503662-2.9936089,3.3944161-5.8000315,2.2629495-10.1965934,5.6568451-4.3034933,3.3944161-6.1744363,3.0170762-6.1744363,3.0170762,0,0,3.0872101,1.8856096,16.3710297,6.4109718,31.2444884,10.6538659,75.2122544,3.3944324,87.2797908,0,13.6576919-3.7712192,16.4641145-6.4109718,16.4641145-6.4109718Z"/>
  <path class="st9" d="M431.0545699,178.2931276c1.5906719-1.4144878,3.1808274-6.8826548,3.0872262-12.9168235-.0936012-8.6733927-3.8354872-16.8761841-7.2029845-21.9670194-5.7064464-8.3914531-16.5582483-11.0312058-25.6321758-2.5459462-3.3680137,3.1114193-4.1162909,7.2599784-1.2162671,18.4793174-1.5901555-.2829968-2.993625.094335-3.5546997,1.0371479-1.1226659,1.8856096.3744049,5.562502,2.3384165,7.7311165,4.3034933,4.9965003,7.1099159,5.1851621,7.1099159,3.2995525.6546759.8484698,3.0872262,4.808359,3.5546997,21.6845431,0,.9428129-.0936012,1.602621-.3738723,1.8856096-.6552085,1.0371479-1.7778744.848478-4.1162909,2.5454176-1.5901555,1.1314829-2.3389491,2.8284225-2.3389491,4.0542241,0,5.4681752,6.0808351,9.9940741,13.6582245,9.9940741,7.5773733,0,13.6576919-4.337229,13.6576919-9.9940741,0-.4711218.1872024-3.2052094-2.9930925-4.8083509-2.0581454-1.0371479-3.6488174-1.0371479-3.9290884-1.7912909-1.5906881-4.6196972-2.8064226-9.5223993-1.5906881-11.5966788,1.4034856-2.2624127,6.641926-2.3567477,9.5419336-5.090819Z"/>
  <path class="st5" d="M409.9141549,141.8066719s.7482771,2.5454176-1.0290808,6.22231c-1.7773418,3.6768924-6.3611062,8.8625912-5.4256266,13.0106217,0,0-1.5906719-3.0170844.4674735-8.8620626,2.0581454-5.8454988,5.9872339-10.3708691,5.9872339-10.3708691Z"/>
  <path class="st5" d="M409.9141549,141.8066719c1.9645442,2.4510908,2.5261515,2.5454176,9.2616625,3.0165557,6.8285797.4716748,9.8222047,3.6768924,11.6931477,5.9398419,0,0-1.122682-3.3938875-5.2384403-7.3537848-4.1162909-3.8655542-15.7163699-1.6026128-15.7163699-1.6026128Z"/>
  <path class="st11" d="M427.4068177,132.9472848c-6.5483247-8.3909245-19.9257456-3.4882306-20.3001343.6603366v.2824682c-.5610747-.094335-1.2157507-.094335-2.0581454-.094335-4.0221732,0-13.3769044,2.6402812-8.3256665,20.4592701.6552085,2.2624127,2.4325503,4.7140322,4.5837644,7.4481116,1.3098844,1.6026128,2.2453479,2.7340876,3.7419022,3.4882306.6551924.2829968.2807875-1.4139429-.2802711-2.7340876-.7482771-1.6969478-1.6837567-3.4882225.0935851-8.3909245,2.057629-5.468167,4.5837644-7.0707799,5.0512379-12.0678169,3.3680299,1.1314747,8.9808589-.9428048,14.0320968,1.8856177,7.1099159,3.9598892,9.0744601,11.6904771,9.0744601,11.6904771,0,0,.9354796-14.2364314-5.612829-22.6273479Z"/>
  <path class="st5" d="M419.921448,180.7458042c-1.7773579,0-3.0872262,1.9799446-1.4034856,4.9027021,1.3098844,2.1686145,2.3389491,4.0542241,3.9291046,7.6367734-1.2162832-4.2423573-1.9645604-8.1079115-1.0290808-9.8048675,1.4034695-2.3572682,6.6419098-2.4516031,9.5419336-5.1856907-1.6837567,1.4144715-3.8355034,2.4510827-11.0384718,2.4510827Z"/>
  <path class="st5" d="M385.5897333,233.9186843l3.5546997-11.3141944-7.2029845,10.8425358c2.5256189.659808,3.6482848.4716586,3.6482848.4716586ZM444.9925329,233.8243494c.0936012,0,1.0290808-.1886537,2.993625-.8484617l-6.9227135-10.4652122,3.9290884,11.3136739Z"/>
  <path class="st10" d="M503.0875784,326.4085896c-60.8062691-4.9027184-91.6768853,14.9905419-128.3475329,34.7900202-7.3901708,3.9593687-12.7222124,7.1650986-16.8385032,9.7105162,3.0872101,3.3000974,4.7709668,7.9198108,3.9290884,13.6709584,63.2382869-16.0277061,136.766252,5.7511801,163.0530876-4.0542241,37.8869308-14.2364152,19.2710697-50.8172058-21.7961399-54.1172707Z"/>
  <path class="st10" d="M525.0688227,331.6859479c-6.1739038-2.7340876-13.5641069-4.6197135-21.9833423-5.3738402-60.8062853-4.9026858-91.6769014,14.9905744-128.347549,34.7894998-6.3611062,3.3944324-11.132073,6.2228549-14.9675602,8.5796026.6546759,1.5088065,1.1226659,3.1113949,1.3098683,4.9026858,4.6773656-2.7340876,11.0384718-6.4109718,21.3286825-11.5023276,27.8769911-13.7647729,79.6088002-33.1869113,142.6599008-31.3956204Z"/>
  <path class="st9" d="M480.0730412,387.5961034c25.6321758,9.5223993,38.8223943,23.758847,40.5997522,19.4221384,3.8354872-9.0512449-5.519244-24.1361543-26.0996655-27.1532468-7.3906872-1.1309461-11.3192593-3.7712192-20.3001182-9.4280643-1.0290808,1.1314666-2.993625,3.2057624-4.9581692,7.9197783-.9354796,2.2629657-.5610747,4.5253785-.8418784,5.93985,4.2098921.8484617,8.0453955,1.9799608,11.6000791,3.2995444Z"/>
  <path class="st5" d="M476.9852985,386.4651898c1.0290646.3767869,2.0581454.6597918,3.0872101,1.0371316,25.6321597,9.5218463,38.8224104,23.758294,40.5997361,19.4215854.1872024-.4711218.3744049-1.0371316.4674896-1.5082535-.2802872.7541267-.7482933,1.3195835-1.6837567,1.5082535-2.4320177.4716748-13.0966172-12.5394918-25.257771-16.1220411-6.8291122-1.9799283-13.0966172-3.3938794-17.2129081-4.336676Z"/>
  <path class="st10" d="M469.6902943,379.0176068c1.7778744-5.6568451,3.3680137-6.7883117,4.7709668-8.5796026-4.1157583-2.5454176-9.3547312-5.6568451-16.5577157-9.6167343-36.6706476-19.7989253-68.4767272-39.7865206-129.2829963-34.7894998-41.0672176,3.3000974-56.9702534,39.6921856-18.9897335,53.4574789,29.5607317,10.7476804,104.118294-7.165619,159.2176003,4.9021654.1872024-1.5082535.2808036-3.3938794.8418784-5.3738077Z"/>
</svg>